<?xml version="1.0" encoding="UTF-8"?>
<svg width="14px" height="15px" viewBox="0 0 14 15" version="1.1" xmlns="http://www.w3.org/2000/svg" xmlns:xlink="http://www.w3.org/1999/xlink">
    <!-- Generator: Sketch 42 (36781) - http://www.bohemiancoding.com/sketch -->
    <title>删除-可点击</title>
    <desc>Created with Sketch.</desc>
    <defs></defs>
    <g id="Page-1" stroke="none" stroke-width="1" fill="none" fill-rule="evenodd">
        <g id="角色管理" transform="translate(-2522.000000, -385.000000)" fill="#16B8BE">
            <g id="1-账号管理-角色管理" transform="translate(2205.000000, 120.000000)">
                <g id="右侧" transform="translate(162.000000, 156.000000)">
                    <g id="表格" transform="translate(11.000000, 12.000000)">
                        <g id="表格内容" transform="translate(30.000000, 12.000000)">
                            <g id="删除-可点击" transform="translate(114.000000, 85.000000)">
                                <g id="Group-3" transform="translate(0.000000, 0.012293)">
                                    <path d="M5.24486268,1.32489171 C5.24486268,1.0626478 5.4197261,0.88778439 5.68197,0.88778439 L8.3043578,0.88778439 C8.56665293,0.88778439 8.74146512,1.0626478 8.74146512,1.32489171 L8.74146512,1.76191366 L5.24486268,1.76191366 L5.24486268,1.32489171 Z M13.5493041,1.76191366 L9.61559439,1.76191366 L9.61559439,1.32489171 C9.61559439,0.581867317 9.04745049,0.013655122 8.3043578,0.013655122 L5.68197,0.013655122 C4.93894561,0.013655122 4.37073341,0.581867317 4.37073341,1.32489171 L4.37073341,1.76191366 L0.437109024,1.76191366 C0.174796829,1.76191366 1.7073171e-06,1.98046732 1.7073171e-06,2.19902098 C1.7073171e-06,2.4612478 0.174796829,2.63612829 0.437109024,2.63612829 L1.31123829,2.63612829 L1.31123829,12.6887429 C1.31123829,13.4318527 1.8793822,13.9999795 2.62247488,13.9999795 L11.3639383,13.9999795 C12.1069456,13.9999795 12.6750895,13.4318527 12.6750895,12.6887429 L12.6750895,3.94727951 C12.6750895,3.68505268 12.5002944,3.51025756 12.2380676,3.51025756 C11.9758237,3.51025756 11.8009602,3.68505268 11.8009602,3.94727951 L11.8009602,12.6887429 C11.8009602,12.9510551 11.6261651,13.1258502 11.3639383,13.1258502 L2.62247488,13.1258502 C2.36016268,13.1258502 2.18536756,12.9510551 2.18536756,12.6887429 L2.18536756,2.63612829 L13.5493041,2.63612829 C13.811531,2.63612829 13.9863261,2.4612478 13.9863261,2.19902098 C13.9863261,1.98046732 13.811531,1.76191366 13.5493041,1.76191366 L13.5493041,1.76191366 Z" id="Fill-1"></path>
                                </g>
                                <path d="M8.74146171,4.83379024 L8.74146171,10.9527805 C8.74146171,11.2150073 8.91625683,11.3898878 9.1785861,11.3898878 C9.44079585,11.3898878 9.61559098,11.2150073 9.61559098,10.9527805 L9.61559098,4.83379024 C9.61559098,4.57147805 9.44079585,4.39668293 9.1785861,4.39668293 C8.91625683,4.39668293 8.74146171,4.57147805 8.74146171,4.83379024 M6.55609585,4.83379024 L6.55609585,10.9527805 C6.55609585,11.2150073 6.73089098,11.3898878 6.99320317,11.3898878 C7.25543,11.3898878 7.43022512,11.2150073 7.43022512,10.9527805 L7.43022512,4.83379024 C7.43022512,4.57147805 7.25543,4.39668293 6.99320317,4.39668293 C6.73089098,4.39668293 6.55609585,4.57147805 6.55609585,4.83379024 M4.37073,4.83379024 L4.37073,10.9527805 C4.37073,11.2150073 4.54552512,11.3898878 4.80783732,11.3898878 C5.07006415,11.3898878 5.24485927,11.2150073 5.24485927,10.9527805 L5.24485927,4.83379024 C5.24485927,4.57147805 5.07006415,4.39668293 4.80783732,4.39668293 C4.54552512,4.39668293 4.37073,4.57147805 4.37073,4.83379024" id="Fill-4"></path>
                            </g>
                        </g>
                    </g>
                </g>
            </g>
        </g>
    </g>
</svg>