<?xml version="1.0" encoding="UTF-8"?>
<svg width="14px" height="14px" viewBox="0 0 14 14" version="1.1" xmlns="http://www.w3.org/2000/svg" xmlns:xlink="http://www.w3.org/1999/xlink">
    <!-- Generator: Sketch 42 (36781) - http://www.bohemiancoding.com/sketch -->
    <title>编辑</title>
    <desc>Created with Sketch.</desc>
    <defs></defs>
    <g id="Page-1" stroke="none" stroke-width="1" fill="none" fill-rule="evenodd">
        <g id="用户管理" transform="translate(-424.000000, -397.000000)" fill="#16B8BE">
            <g id="1-账号管理-用户管理" transform="translate(133.000000, 170.000000)">
                <g id="右侧" transform="translate(162.000000, 156.000000)">
                    <g id="表格" transform="translate(11.000000, 12.000000)">
                        <g id="表格内容" transform="translate(30.000000, 12.000000)">
                            <g id="编辑" transform="translate(88.000000, 47.000000)">
                                <g id="Group-3" transform="translate(0.000000, 0.165890)">
                                    <path d="M11.7830017,13.5214829 L1.71836815,13.5214829 C0.797820205,13.5214829 -1.19863016e-05,12.7237466 -1.19863016e-05,11.8031267 L-1.19863016e-05,1.73846918 C-1.19863016e-05,0.817969178 0.797820205,0.0201369863 1.71836815,0.0201369863 L8.40763527,0.0201369863 C8.77585445,0.0201369863 9.02138185,0.265664384 9.02138185,0.633859589 C9.02138185,1.00207877 8.77585445,1.24751027 8.40763527,1.24751027 L1.71836815,1.24751027 C1.4728887,1.24751027 1.22738527,1.49303767 1.22738527,1.73846918 L1.22738527,11.8031267 C1.22738527,12.0486541 1.4728887,12.2941096 1.71836815,12.2941096 L11.7830017,12.2941096 C12.089875,12.2941096 12.2739606,12.0486541 12.2739606,11.8031267 L12.2739606,5.11383562 C12.2739606,4.74564041 12.5194161,4.50011301 12.8877072,4.50011301 C13.2559024,4.50011301 13.5013579,4.74564041 13.5013579,5.11383562 L13.5013579,11.8031267 C13.5013579,12.7237466 12.7035976,13.5214829 11.7830017,13.5214829" id="Fill-1"></path>
                                </g>
                                <path d="M13.8082192,1.04520788 L6.56662329,8.34822158 C6.32109589,8.59362911 5.95287671,8.59362911 5.70734932,8.34822158 C5.46191781,8.10279007 5.46191781,7.73449897 5.70734932,7.48904349 L12.9490411,0.186029795 C13.1944726,-0.0594256849 13.5627877,-0.0594256849 13.8082192,0.186029795 C14.0536507,0.431557192 14.0536507,0.799752397 13.8082192,1.04520788" id="Fill-4"></path>
                            </g>
                        </g>
                    </g>
                </g>
            </g>
        </g>
    </g>
</svg>