<?xml version="1.0" encoding="UTF-8"?>
<svg width="14px" height="15px" viewBox="0 0 14 15" version="1.1" xmlns="http://www.w3.org/2000/svg" xmlns:xlink="http://www.w3.org/1999/xlink">
    <!-- Generator: Sketch 42 (36781) - http://www.bohemiancoding.com/sketch -->
    <title>角色权限</title>
    <desc>Created with Sketch.</desc>
    <defs></defs>
    <g id="Page-1" stroke="none" stroke-width="1" fill="none" fill-rule="evenodd">
        <g id="用户管理" transform="translate(-450.000000, -396.000000)" fill="#16B8BE">
            <g id="1-账号管理-用户管理" transform="translate(133.000000, 170.000000)">
                <g id="右侧" transform="translate(162.000000, 156.000000)">
                    <g id="表格" transform="translate(11.000000, 12.000000)">
                        <g id="表格内容" transform="translate(30.000000, 12.000000)">
                            <g id="角色权限" transform="translate(114.000000, 46.000000)">
                                <path d="M6.96145276,13.4632417 C6.78881472,13.4632417 6.62665521,13.3959902 6.50460613,13.2739411 L4.39928098,11.168616 C4.2772319,11.0466528 4.21006626,10.8844933 4.21006626,10.7117693 C4.21006626,10.5392172 4.2772319,10.3769718 4.39928098,10.2550086 C4.52124417,10.1330454 4.68348957,10.065708 4.85604172,10.065708 C5.02867975,10.065708 5.19092515,10.1330454 5.31288834,10.2550086 L6.96145276,11.9034871 L10.9167534,7.94827239 C11.0388883,7.82613742 11.2010479,7.75897178 11.3736,7.75897178 C11.5461521,7.75897178 11.7083975,7.82613742 11.8304466,7.94810061 C12.0822748,8.20027239 12.0822748,8.61005153 11.8304466,8.86187975 L7.41829939,13.2739411 C7.2963362,13.3960761 7.13400491,13.4632417 6.96145276,13.4632417 Z M6.97416442,1.29208834 C5.29519509,1.29208834 3.92912147,2.65799018 3.92912147,4.3370454 C3.92912147,6.01601472 5.29519509,7.38200245 6.97416442,7.38200245 C8.65313374,7.38200245 10.0192074,6.01601472 10.0192074,4.3370454 C10.0192074,2.65799018 8.65313374,1.29208834 6.97416442,1.29208834 L6.97416442,1.29208834 Z M0.646078528,15.0021252 C0.289894479,15.0021252 1.71779138e-05,14.7123337 1.71779138e-05,14.3560638 C1.71779138e-05,13.4148859 0.184507975,12.5015362 0.548336196,11.6411804 C0.89962454,10.8107141 1.40242209,10.064935 2.04264294,9.42462822 C2.6828638,8.78449325 3.42855706,8.2817816 4.25928098,7.93032147 C4.31888834,7.90515583 4.37892515,7.88076319 4.43930552,7.85714356 C4.25017669,7.72049325 4.07229939,7.56881227 3.90730552,7.4038184 C3.0880908,6.58468957 2.63699877,5.49552393 2.63699877,4.3370454 C2.63699877,3.17856687 3.0880908,2.08940123 3.90730552,1.27027239 C4.72652025,0.451057669 5.81568589,-3.43558282e-05 6.97416442,-3.43558282e-05 C8.13272883,-3.43558282e-05 9.22180859,0.451057669 10.0410233,1.27027239 C10.8603239,2.08940123 11.3113301,3.17856687 11.3113301,4.3370454 C11.3113301,5.49552393 10.860238,6.58477546 10.0410233,7.4038184 C9.87611534,7.56889816 9.69815215,7.72049325 9.5091092,7.85714356 C9.56940368,7.88076319 9.62944049,7.90515583 9.68913374,7.93032147 C9.7224589,7.94432147 9.75544049,7.95900859 9.78842209,7.97360982 L10.0757227,8.10089816 L9.8607411,8.32635828 L9.10173497,9.08545031 L8.97161227,9.03649325 C8.33336687,8.79608834 7.66136687,8.67412515 6.97416442,8.67412515 C4.08818896,8.67412515 1.65218896,10.8678307 1.32864294,13.7099166 L3.28288834,13.7099166 C3.63907239,13.7099166 3.9288638,13.999708 3.9288638,14.3560638 C3.9288638,14.7123337 3.63907239,15.0021252 3.28288834,15.0021252 L0.646078528,15.0021252 Z M10.6650969,15.0021252 C10.3087411,15.0021252 10.0189497,14.7123337 10.0189497,14.3560638 C10.0189497,13.9997939 10.3087411,13.7100025 10.6650969,13.7100025 L12.6196,13.7100025 C12.484238,12.5291067 11.9719926,11.4044687 11.1631706,10.521438 L11.0236859,10.3694135 L11.9392687,9.45400245 L12.0915509,9.61813742 C12.6441644,10.214211 13.0843485,10.8948 13.4000785,11.6411804 C13.7639926,12.501708 13.9484834,13.4150577 13.9484834,14.3560638 C13.9484834,14.7123337 13.658692,15.0021252 13.3022503,15.0021252 L10.6650969,15.0021252 Z" id="Fill-1"></path>
                            </g>
                        </g>
                    </g>
                </g>
            </g>
        </g>
    </g>
</svg>