<?xml version="1.0" encoding="UTF-8"?>
<svg width="12px" height="16px" viewBox="0 0 12 16" version="1.1" xmlns="http://www.w3.org/2000/svg" xmlns:xlink="http://www.w3.org/1999/xlink">
    <!-- Generator: Sketch 42 (36781) - http://www.bohemiancoding.com/sketch -->
    <title>重置密码</title>
    <desc>Created with Sketch.</desc>
    <defs></defs>
    <g id="Page-1" stroke="none" stroke-width="1" fill="none" fill-rule="evenodd">
        <g id="用户管理" transform="translate(-476.000000, -396.000000)" fill="#16B8BE">
            <g id="1-账号管理-用户管理" transform="translate(133.000000, 170.000000)">
                <g id="右侧" transform="translate(162.000000, 156.000000)">
                    <g id="表格" transform="translate(11.000000, 12.000000)">
                        <g id="表格内容" transform="translate(30.000000, 12.000000)">
                            <g id="重置密码" transform="translate(140.000000, 46.000000)">
                                <path d="M10.6720462,13.1558538 C10.6720462,13.3380077 10.6074308,13.4941615 10.4761231,13.6220846 C10.3464308,13.7507769 10.1892,13.8153923 10.0050462,13.8153923 L2.00089231,13.8153923 C1.81673846,13.8153923 1.65958462,13.7517769 1.53035385,13.6220846 C1.40004615,13.4932385 1.33389231,13.3380077 1.33389231,13.1558538 L1.33389231,8.54085385 C1.33389231,8.17800769 1.63266154,7.8827 2.00089231,7.8827 L10.0050462,7.8827 C10.3728154,7.8827 10.6720462,8.17800769 10.6720462,8.54085385 L10.6720462,13.1558538 Z M11.1465846,6.59477692 L2.66296923,6.58054615 C2.65950769,5.44939231 2.35204615,3.69623846 3.32850769,2.63208462 C3.92250769,1.98377692 4.92343077,1.31631538 5.99150769,1.31631538 C7.56927692,1.31631538 8.74896923,2.49254615 9.31996923,3.94846923 C9.48650769,4.36808462 9.63289231,4.59439231 9.98596923,4.60662308 C10.8708923,4.63308462 10.8170462,3.70993077 10.6515077,3.29031538 C9.82635385,1.18846923 8.27843077,7.69230769e-06 5.99150769,7.69230769e-06 C4.4372,7.69230769e-06 3.58066154,0.315315385 2.66296923,1.31631538 C1.25850769,2.84562308 1.32804615,5.31816154 1.33150769,6.58054615 L0.836430769,6.59477692 C0.373661538,6.59477692 -3.07692308e-05,6.96054615 -3.07692308e-05,7.41062308 L-3.07692308e-05,14.3183154 C-3.07692308e-05,14.7708538 0.374661538,15.1357 0.836430769,15.1357 L11.1455846,15.1357 C11.6078923,15.1357 11.9819692,14.7703154 11.9819692,14.3183154 L11.9819692,7.41062308 C11.9829692,6.96008462 11.6083538,6.59477692 11.1465846,6.59477692 L11.1465846,6.59477692 Z" id="Fill-1"></path>
                            </g>
                        </g>
                    </g>
                </g>
            </g>
        </g>
    </g>
</svg>