<svg xmlns="http://www.w3.org/2000/svg" width="31.781" height="346.032" viewBox="0 0 31.781 346.032">
  <metadata><?xpacket begin="﻿" id="W5M0MpCehiHzreSzNTczkc9d"?>
<x:xmpmeta xmlns:x="adobe:ns:meta/" x:xmptk="Adobe XMP Core 5.6-c138 79.159824, 2016/09/14-01:09:01        ">
   <rdf:RDF xmlns:rdf="http://www.w3.org/1999/02/22-rdf-syntax-ns#">
      <rdf:Description rdf:about=""/>
   </rdf:RDF>
</x:xmpmeta>
                                                                                                    
                                                                                                    
                                                                                                    
                                                                                                    
                                                                                                    
                                                                                                    
                                                                                                    
                                                                                                    
                                                                                                    
                                                                                                    
                                                                                                    
                                                                                                    
                                                                                                    
                                                                                                    
                                                                                                    
                                                                                                    
                                                                                                    
                                                                                                    
                                                                                                    
                                                                                                    
                           
<?xpacket end="w"?></metadata>
<defs>
    <style>
      .cls-1 {
        fill: #464d53;
        fill-rule: evenodd;
      }
    </style>
  </defs>
  <path id="天下难事_必作于易_拷贝" data-name="天下难事，必作于易  拷贝" class="cls-1" d="M786.865,300.992a5.3,5.3,0,0,0-1.205-.882,18.946,18.946,0,0,0-2.051-.972q-1.26-.522-3.238-1.206a6.2,6.2,0,0,1-1.062-.5,14.654,14.654,0,0,1-1.259-.81q-0.63-.45-1.187-0.918a6.748,6.748,0,0,1-.882-0.864,10.474,10.474,0,0,0-.935-0.882q-0.648-.558-1.421-1.152t-1.62-1.152a12.666,12.666,0,0,0-1.529-.882,20.52,20.52,0,0,1,1.781-1.026q1.134-.594,2.375-1.188t2.429-1.08a19.551,19.551,0,0,1,1.943-.7,1.45,1.45,0,0,0,1.1-.738,0.906,0.906,0,0,0-.414-0.918,4.7,4.7,0,0,0-1.889-1.08,2.025,2.025,0,0,0-1.529.072q-0.432.252-1.187,0.648t-1.6.81q-0.846.414-1.637,0.774t-1.26.576a3.773,3.773,0,0,0-.36-1.1,6.021,6.021,0,0,0-.683-1.1q0.61-.54,1.583-1.314t1.943-1.512q0.972-.738,1.727-1.26a7.725,7.725,0,0,1,.935-0.594,1.245,1.245,0,0,0,.738-0.5,1.113,1.113,0,0,0,.162-0.81,1.876,1.876,0,0,0-.45-0.9,3.329,3.329,0,0,0-1.133-.81,7.532,7.532,0,0,0-1.224-.432,5.127,5.127,0,0,0-1.025-.162,2.076,2.076,0,0,0-.72.072,0.307,0.307,0,0,0-.269.234q-0.073.5-2.159,1.512a8.878,8.878,0,0,1-1.925.72,4.249,4.249,0,0,1-1.457.144q-1.188-.108-0.5,1.188a5.253,5.253,0,0,0,.684.9,8.361,8.361,0,0,0,.9.846,6.1,6.1,0,0,0,.936.63,2.282,2.282,0,0,0,.791.288q-0.144.144-.27,0.288t-0.27.324a0.747,0.747,0,0,0-.683-0.162,1.09,1.09,0,0,0,.036.846q-0.468.54-.9,1.08t-0.719.936q-0.36.5,0.018,0.72t1.385-.576a8.109,8.109,0,0,1-.324,2.16q-1.8.936-2.842,1.422t-1.6.684a1.755,1.755,0,0,1-.7.162,0.131,0.131,0,0,1-.108-0.18q0.108-.36-0.2-0.4a0.687,0.687,0,0,0-.594.468,2.707,2.707,0,0,0-.071,1.98,1.118,1.118,0,0,0,.647.666,4.233,4.233,0,0,0,1.3.378,7.215,7.215,0,0,0,1.62.036,5.176,5.176,0,0,0,1.619-.4,15.012,15.012,0,0,1-.756,2.718,7.868,7.868,0,0,1-1.079,1.89,8.741,8.741,0,0,1-2.465,2.034,6.015,6.015,0,0,1-2.357.774c-0.431.023-.66,0.137-0.683,0.342a0.589,0.589,0,0,0,.5.522,6.067,6.067,0,0,0,2.609.342,9.407,9.407,0,0,0,3.58-1.134,4.957,4.957,0,0,0,1.943-1.62,3.93,3.93,0,0,0,.648-2.052q0.034-1.008.161-2.088a18.527,18.527,0,0,1,.342-2.016c0.671,0.168,1.26.342,1.763,0.522a6.887,6.887,0,0,1,1.4.684,6.463,6.463,0,0,1,1.224,1.026,18.032,18.032,0,0,1,1.3,1.584,31.09,31.09,0,0,0,2.3,2.862,16.2,16.2,0,0,0,2.051,1.908,7.8,7.8,0,0,0,1.853,1.08,6.312,6.312,0,0,0,1.745.414,20.282,20.282,0,0,0,2.824.072,7.236,7.236,0,0,0,1.853-.36,0.927,0.927,0,0,0,.576-0.378,0.764,0.764,0,0,0-.18-0.594A4.781,4.781,0,0,0,786.865,300.992Zm-7.718,14.34a4.59,4.59,0,0,0-3.274.5,6.984,6.984,0,0,1-1.385.558q-0.882.27-2.608,0.666-0.614.144-1.925,0.558t-2.933.972q-1.619.558-3.346,1.17t-3.166,1.152q-0.9.324-1.457,0.5t-0.972.27a3.454,3.454,0,0,1-.719.09q-0.306,0-.666-0.036a0.891,0.891,0,0,0-.7.126q-0.126.162,0.27,0.522a18.872,18.872,0,0,0,2.537,1.872,6.635,6.635,0,0,0,1.961.828,3.044,3.044,0,0,0,1.583-.054,4.218,4.218,0,0,0,1.4-.81,8.541,8.541,0,0,1,1.259-.846q0.684-.378,1.386-0.684t1.385-.558A9.869,9.869,0,0,0,769,321.6q0.144,2.556.2,4.536t0.054,3.546q0,1.566-.072,2.79T769,334.736q-0.18,1.98-.18,3.294a8.719,8.719,0,0,0,.234,2.2,3.694,3.694,0,0,0,.72,1.458,5.552,5.552,0,0,0,1.277,1.08,1.979,1.979,0,0,0,1.115.414,0.939,0.939,0,0,0,.738-0.36,1.669,1.669,0,0,0,.306-0.954,4.159,4.159,0,0,0-.18-1.368,16.008,16.008,0,0,1-.5-1.962q-0.216-1.1-.378-2.178t-0.233-2.016c-0.049-.624-0.072-1.116-0.072-1.476,0-.432.023-0.9,0.072-1.4s0.107-1,.179-1.494,0.156-.942.252-1.35a4.568,4.568,0,0,1,.324-0.972,2.473,2.473,0,0,1,1.062-1.1,0.922,0.922,0,0,1,1.061-.018,2.347,2.347,0,0,1,1.133,1.728q-0.054.756-1.709,0.756a0.26,0.26,0,0,0-.324.252,0.479,0.479,0,0,0,.18.4,5.909,5.909,0,0,0,2.087.954,2.753,2.753,0,0,0,1.673-.108,2.215,2.215,0,0,0,1.1-1.116,4.827,4.827,0,0,0,.395-2.106,3.354,3.354,0,0,0-1.133-1.908,4.731,4.731,0,0,0-2-.936,4.646,4.646,0,0,0-2.464-.054,1.779,1.779,0,0,0-1.134,1.134,1.018,1.018,0,0,1-.432.666,1.5,1.5,0,0,1-.395-0.018q-0.038-.576-0.018-1.35t0.09-1.584q0.07-.81.2-1.62a14.863,14.863,0,0,1,.306-1.494q1.368-.36,2.5-0.576t2.123-.324a17.419,17.419,0,0,1,1.889-.108q0.9,0,1.835.072a1.659,1.659,0,0,0,1.709-.5,1.18,1.18,0,0,0-.306-1.476A5.065,5.065,0,0,0,779.147,315.332Zm5.775,61.9a1.086,1.086,0,0,0-.234-0.5,3.026,3.026,0,0,0-.521-0.468c-0.229-.168-0.534-0.384-0.918-0.648a1.306,1.306,0,0,0-.629-0.252,1.436,1.436,0,0,0-.63.216,3.342,3.342,0,0,1-.972.234,6.55,6.55,0,0,1-1.259.054,1.516,1.516,0,0,0,.144-0.45q0.036-.234.072-0.522,0.934-.612,1.457-0.972a4.667,4.667,0,0,0,.738-0.594,0.574,0.574,0,0,0,.2-0.414,2.019,2.019,0,0,0-.126-0.468,1.848,1.848,0,0,0-.882-1.08,3.2,3.2,0,0,0-1.349-.18v-0.522a1.414,1.414,0,0,1,.072-0.45,3.017,3.017,0,0,1,1.3-1.044,1.347,1.347,0,0,0,1.008-1.188q0-1.656-2.231-1.44a2.845,2.845,0,0,1-.054-0.738,0.9,0.9,0,0,1,.306-0.666,4.087,4.087,0,0,0,1.547-.846,1.668,1.668,0,0,0,.432-1.206,0.979,0.979,0,0,0-.864-1.188,8.085,8.085,0,0,0-1.079,0,3.923,3.923,0,0,0-1.08.216,6.594,6.594,0,0,0-1.3-.432,2.7,2.7,0,0,0-.971.036,0.663,0.663,0,0,0-.54.306,3.481,3.481,0,0,0-.036,1.242,10.991,10.991,0,0,0-1.367.648q-0.792.432-1.619,0.9a4.315,4.315,0,0,1-.054-1.386,1.32,1.32,0,0,1,.3-0.7l0.864-.5q0.432-.252.792-0.5,0.611-.432,1.061-0.738t0.845-.522q0.4-.216.81-0.414t0.989-.45a5.8,5.8,0,0,0,1.746-1.044,1.181,1.181,0,0,0,.485-0.972,3.083,3.083,0,0,0-.378-0.99,2.821,2.821,0,0,0-.647-0.756,2.5,2.5,0,0,0-.846-0.45,2.37,2.37,0,0,0-.9-0.108q-0.792.072-1.349,0.126c-0.373.036-.75,0.078-1.134,0.126a2.661,2.661,0,0,0-.324-1.08,4.038,4.038,0,0,0-.773-1.008,4.454,4.454,0,0,0-1.152-.792,4.16,4.16,0,0,0-1.457-.4,0.759,0.759,0,0,0-.863.27q-0.144.342,0.4,0.63a0.869,0.869,0,0,1,.359.36,1.265,1.265,0,0,1,.072.648,1.985,1.985,0,0,1-.2.774,6.872,6.872,0,0,1-.539.972,7.764,7.764,0,0,1-.792,1.008,6.3,6.3,0,0,1-.953.846,3.955,3.955,0,0,0-.954,1.026,3.115,3.115,0,0,0-.522,1.062,3.724,3.724,0,0,0-1.493-.576,4.688,4.688,0,0,0-1.493.108,2.248,2.248,0,0,0-.594.288,9.713,9.713,0,0,0-.9.63q-0.486.378-1.007,0.81t-0.954.828a3.281,3.281,0,0,1-1.727.864,0.594,0.594,0,0,0-.5.378,0.977,0.977,0,0,0,.216.81,3.2,3.2,0,0,0,1.044.954,3.167,3.167,0,0,0,1.619.378,6.286,6.286,0,0,0,.989-0.09,3.772,3.772,0,0,0,.954-0.27c-0.216.384-.409,0.75-0.576,1.1s-0.348.75-.54,1.206a11.263,11.263,0,0,0-2.212-.288,5.064,5.064,0,0,0-1.674.288,12.948,12.948,0,0,0-1.331.486,3.778,3.778,0,0,0-.755.45,0.318,0.318,0,0,0-.072.5,1.313,1.313,0,0,0,.935.36q0.252,0.036.7,0.126t0.971,0.216q0.522,0.126,1.044.27t0.917,0.288a12.5,12.5,0,0,1-2.321,2.682,2.563,2.563,0,0,1-2.068.666,0.8,0.8,0,0,0-.594.036,0.835,0.835,0,0,0,.09.612,1.316,1.316,0,0,0,.5.684,1.728,1.728,0,0,0,1.079.216,6.152,6.152,0,0,0,2.95-.9,13.291,13.291,0,0,0,3.023-2.772q1.042,0.576,1.673.918t0.989,0.5a2.844,2.844,0,0,0,.54.2,1.66,1.66,0,0,0,.324.036,0.868,0.868,0,0,0,.827-0.288,4.574,4.574,0,0,0,.216-1.368,12.9,12.9,0,0,0,.648,2.25q0.466,1.242.863,2.178,0.036,0.4.054,1.332t0,1.944q-0.018,1.008-.054,1.872a7.986,7.986,0,0,1-.108,1.188,2.665,2.665,0,0,0-.072,1.026,5.769,5.769,0,0,0,.468,1.206,3.551,3.551,0,0,0,.612,1.008,0.928,0.928,0,0,0,.611.18,0.709,0.709,0,0,0,.7-0.432,4.872,4.872,0,0,0,.2-1.728c0-.264-0.013-0.654-0.036-1.17s-0.054-1.1-.09-1.764-0.072-1.35-.108-2.07-0.078-1.416-.126-2.088a7.344,7.344,0,0,1-.018-0.99q0.018-.738.072-1.584t0.126-1.6a8.273,8.273,0,0,1,.144-1.044,8.34,8.34,0,0,0,.27-1.422q0.088-.81.126-1.314a8.061,8.061,0,0,1,.647-0.648,11.908,11.908,0,0,1,1.08-.828,4.1,4.1,0,0,1,1.421-.666q0.7-.162,1.061-0.234a0.95,0.95,0,0,1,.036.486,1.013,1.013,0,0,1-.144.486,2.529,2.529,0,0,1-.575.468,6.955,6.955,0,0,1-.828.45q-0.432.2-.809,0.342c-0.252.1-.427,0.156-0.522,0.18a1.346,1.346,0,0,0-.81.63,2.53,2.53,0,0,0-.413,1.062,4.5,4.5,0,0,0-.018.684,0.278,0.278,0,0,0,.161.27,1.377,1.377,0,0,0,.45.054q0.306,0,.846.036a5.031,5.031,0,0,0,1.133-.072,2.636,2.636,0,0,0,1.026-.324,1.047,1.047,0,0,1,.107.486,2.046,2.046,0,0,1,0,.558,1.95,1.95,0,0,1-.863.594q-0.54.2-.792,0.27a1.9,1.9,0,0,0-.935.558,3.571,3.571,0,0,0-.576,1.386,0.5,0.5,0,0,0,.306.612,1.951,1.951,0,0,0,.918.216,5.8,5.8,0,0,1,1.007.072,0.464,0.464,0,0,1,.432.252,9.744,9.744,0,0,0-2.789,1.656,0.934,0.934,0,0,0-.341,1.224,2.348,2.348,0,0,0,.719.7,4.039,4.039,0,0,0,1.187.45,1.686,1.686,0,0,0,.936-0.054,3.2,3.2,0,0,0,.971-0.522,2.27,2.27,0,0,1,.936-0.378,8.71,8.71,0,0,1,1.313-.162,8.6,8.6,0,0,1,1.367.036,5.371,5.371,0,0,1,1.1.216q0.251,0.072.5,0.126a3.186,3.186,0,0,0,.648.054,2.51,2.51,0,0,0,1.241-.216,0.785,0.785,0,0,0,.342-0.72A4,4,0,0,0,784.922,377.231Zm-8.743-18.738q-0.45.414-1.007,0.918t-1.134,1.044q-0.576.54-1.007,1.008a6.246,6.246,0,0,0-1.349,2.34,15.547,15.547,0,0,0-.45,2.412,7.739,7.739,0,0,0-.828.882,4.1,4.1,0,0,0-.539.918,6.439,6.439,0,0,0-.36,1.152,15.608,15.608,0,0,0-.252,1.62,4.961,4.961,0,0,0-1.259-1.242,15.418,15.418,0,0,0-1.727-1.1q0.324-.72.737-1.548t0.81-1.584c0.263-.5.5-0.942,0.719-1.314a6.224,6.224,0,0,1,.5-0.774,1.634,1.634,0,0,0,.324-0.666,3.116,3.116,0,0,0,0-.954,1.948,1.948,0,0,0,.792-0.252,12.531,12.531,0,0,0,1.1-.63q0.594-.378,1.241-0.846t1.224-.864q0.79-.648,1.295-0.99a3.452,3.452,0,0,1,.845-0.45,0.92,0.92,0,0,1,.558-0.036,0.891,0.891,0,0,1,.4.288A4.894,4.894,0,0,1,776.179,358.493Zm-5.091,11.358q-0.036.54-.054,1.1t-0.036,1.1q-0.018.54-.018,0.9a2.512,2.512,0,0,1-.72-0.954,3.384,3.384,0,0,1-.323-1.494,1.487,1.487,0,0,1,.3-1.044,2.022,2.022,0,0,1,.918-0.5Q771.124,369.311,771.088,369.851Zm7.916,25.2a2.98,2.98,0,0,0-1.458-.288,10.668,10.668,0,0,0-2.248.36q-1.368.344-3.526,1.062c0.023-.6.023-1.1,0-1.494a4.671,4.671,0,0,0-.18-1.062,3.781,3.781,0,0,0-.432-0.918q-0.288-.449-0.756-1.1c-0.072-.095-0.132-0.18-0.18-0.252a0.443,0.443,0,0,0-.2-0.162,0.89,0.89,0,0,0-.342-0.054,2.954,2.954,0,0,0-.648.108,1.225,1.225,0,0,0-.791.486,0.5,0.5,0,0,0,0,.738,1.434,1.434,0,0,1,.233.306,1.886,1.886,0,0,1,.144.612q0.054,0.452.108,1.386t0.126,2.592q-2.662.972-4.551,1.638t-3.166,1.062q-1.278.4-1.979,0.558a3.036,3.036,0,0,1-.918.126,4.078,4.078,0,0,0-.629-0.018,0.463,0.463,0,0,0-.378.18,0.6,0.6,0,0,0,0,.5,3.436,3.436,0,0,0,.539.918,2.7,2.7,0,0,0,.774.756,2.851,2.851,0,0,0,.953.4,3.443,3.443,0,0,0,.99.072,2.131,2.131,0,0,0,.881-0.252,15.691,15.691,0,0,1,1.512-.72q0.935-.395,2.014-0.81t2.159-.792q1.08-.378,1.943-0.63a0.918,0.918,0,0,1,.216.432,0.744,0.744,0,0,1-.306.558,7.241,7.241,0,0,1-1.151.864A24.036,24.036,0,0,1,765.4,403.5a1.884,1.884,0,0,0-.629.666,6.037,6.037,0,0,0-.594,1.638,0.862,0.862,0,0,0,.108.828,0.651,0.651,0,0,0,.791.072q0.648-.216,1.727-0.486a11.562,11.562,0,0,0,2.807-1.278,7.791,7.791,0,0,1-1.3,1.152,14.351,14.351,0,0,1-1.62,1.026,16.186,16.186,0,0,1-1.565.756,4.138,4.138,0,0,1-1.169.342,0.874,0.874,0,0,0-.648.468,6.75,6.75,0,0,0-.467,1.548,1,1,0,0,0,.341,1.206,1.1,1.1,0,0,0,1.1-.054q1.546-.864,2.734-1.4a14.694,14.694,0,0,1,2.267-.828,1.758,1.758,0,0,1-.036.378,0.789,0.789,0,0,1-.306.378,5.694,5.694,0,0,1-.845.522q-0.576.308-1.619,0.81a3.1,3.1,0,0,0-1.188,1.026,2.07,2.07,0,0,0-.467,1.314,0.99,0.99,0,0,0,.485.846,6.569,6.569,0,0,0,1.709.558,6.567,6.567,0,0,1-1.259.972,1.907,1.907,0,0,1-1.079.144,0.723,0.723,0,0,0-.7.45,2.294,2.294,0,0,0-.2,1.314,1.615,1.615,0,0,0,.81,1.422,1.683,1.683,0,0,0,1.421.054q0.971-.4,1.709-0.72t1.709-.792c0.024,0.216.048,0.421,0.072,0.612a5.154,5.154,0,0,1,.036.612q0,0.324-.018.72t-0.054.972a0.513,0.513,0,0,1-.324.432,2.7,2.7,0,0,1-.845.27,5.468,5.468,0,0,1-1.206.054,10.708,10.708,0,0,1-1.439-.18,0.634,0.634,0,0,0-.666.09q-0.126.2,0.486,0.594a28.755,28.755,0,0,1,2.825,1.926,13.028,13.028,0,0,1,1.6,1.458,1.02,1.02,0,0,0,.521.4,0.726,0.726,0,0,0,.414-0.432,10.2,10.2,0,0,0,.864-1.782,3.907,3.907,0,0,0,.252-1.17q-0.037-1.584-.018-2.772t0.089-2.484a18,18,0,0,1,2.249-.216,17.3,17.3,0,0,1,1.961.036,1.5,1.5,0,0,0,1.026-.108,1.36,1.36,0,0,0,.089-0.9c0.24-.36.444-0.677,0.612-0.954s0.348-.605.54-0.99,0.414-.864.665-1.44,0.582-1.355.99-2.34a2.724,2.724,0,0,0,.27-1.656,3.913,3.913,0,0,0-1.134-1.548,5.224,5.224,0,0,0-2.608-1.188,17.111,17.111,0,0,0-4.839.036,8.858,8.858,0,0,0,1.619-1.1q0.683-.594,1.187-0.99a1.213,1.213,0,0,0,.342-0.5,1.06,1.06,0,0,0,.036-0.666,1.406,1.406,0,0,0-.45-0.666,2.53,2.53,0,0,0-1.079-.5q2.159-1.331,3.364-2.07t1.835-1.08a9.53,9.53,0,0,1,.863-0.432,2.819,2.819,0,0,1,.414-0.126,0.77,0.77,0,0,0,.666-0.576,1.323,1.323,0,0,0-.522-1.224A4.4,4.4,0,0,0,779,395.056Zm-2.069,14.364a8.782,8.782,0,0,1-.252,1.008q-0.162.524-.36,1.026t-0.342.9q-0.792,1.91-1.367,1.782t-1.043-1.818a5.932,5.932,0,0,0,.827-0.918,1.355,1.355,0,0,0,.288-0.756,0.76,0.76,0,0,0-.378-0.612,3.4,3.4,0,0,0-1.205-.45,4.208,4.208,0,0,0-.774-0.72,1.012,1.012,0,0,1-.485-0.54,15.39,15.39,0,0,1,3.975-.45,1.083,1.083,0,0,1,1.17.738A2.925,2.925,0,0,1,776.935,409.42Zm-4.624,5.058a3.958,3.958,0,0,0-.647.036,8.5,8.5,0,0,1,.144-0.882,3.507,3.507,0,0,1,.215-0.63c0.144-.335.36-0.378,0.648-0.126a2.136,2.136,0,0,1,.4,1.638A6.571,6.571,0,0,0,772.311,414.478Zm-3.328-1.206c-0.156.157-.336,0.324-0.54,0.5s-0.408.355-.611,0.522-0.354.288-.45,0.36a0.747,0.747,0,0,1-.36-0.558,0.8,0.8,0,0,1,.216-0.63,1.794,1.794,0,0,1,.774-0.468,2.751,2.751,0,0,1,1.277-.072A2.664,2.664,0,0,1,768.983,413.272Zm6.135-14.184a8.8,8.8,0,0,1-3.418.99q0.682-.432,1.565-0.9t1.817-.9a19.266,19.266,0,0,1,1.889-.756,9.434,9.434,0,0,1,1.745-.432Q776.736,398.244,775.118,399.088Zm3.454,40.087a3.047,3.047,0,0,0-.5,1.08q0,0.252.18,0.252,0.612,0,2.051-2.088a7.1,7.1,0,0,0,1.439-4,5.055,5.055,0,0,0-.108-1.026,0.617,0.617,0,0,0-.684-0.522,2.222,2.222,0,0,0-1.8,1.44,4.77,4.77,0,0,0-.791,2.052,0.884,0.884,0,0,0,1.079.9A9.4,9.4,0,0,1,778.572,439.175Zm5.7,45.21a8.091,8.091,0,0,0-3.976-1.656q-0.54-.072-0.558.2a1.022,1.022,0,0,0,.63.666,1.191,1.191,0,0,1,.683.684q0.144,0.432.324,1.044,0.108,0.828-.432.864-0.683.108-1.493,0.162t-1.637.162q-0.5.072-.45,0.216a1.3,1.3,0,0,0,.81.252,3.858,3.858,0,0,1,1.6.7q0.774,0.558,1.817,1.422a5.526,5.526,0,0,0,1.583,1.116,1.093,1.093,0,0,0,1.08-.054,2.166,2.166,0,0,0,.7-1.116,12.128,12.128,0,0,0,.45-2.07A2.809,2.809,0,0,0,784.275,484.385Zm-5.325,7.542q-1.854-1.782-5.02-5.454,0.936-1.62,1.907-3.078a14.953,14.953,0,0,1,1.727-2.214,5.206,5.206,0,0,0,1.44-2.214,2.037,2.037,0,0,0-.54-1.746,3.612,3.612,0,0,0-.9-0.882,3.189,3.189,0,0,0-1.259-.378,4.4,4.4,0,0,1-.791-0.162,2.68,2.68,0,0,1-.828-0.414q-0.612-.468-0.774-0.234a1.167,1.167,0,0,0,.234.99,4.781,4.781,0,0,1,.45,1.026,2.145,2.145,0,0,1-.108,1.188,10.093,10.093,0,0,1-.935,1.926q-0.7,1.188-2.033,3.2a14.586,14.586,0,0,1-1.943-2.772,5.507,5.507,0,0,0,1.259-.684,2.931,2.931,0,0,0,.792-0.972,3.3,3.3,0,0,0,.557-1.44,1.988,1.988,0,0,0-.593-1.26,5.651,5.651,0,0,0-1.386-1.188,2.838,2.838,0,0,0-1.457-.468q-0.72,0-1.457-.072a9.7,9.7,0,0,1-1.205-.18q-1.116-.18-1.259.126t0.611,0.81q0.4,0.288.972,0.63a11.22,11.22,0,0,0,1.583.738,0.539,0.539,0,0,1,.324.324,0.815,0.815,0,0,1-.162.7,5.636,5.636,0,0,1-1.1,1.17,22.376,22.376,0,0,1-2.446,1.764,4.822,4.822,0,0,0-1.26.018,1.949,1.949,0,0,0-1.043.594,0.83,0.83,0,0,0-.4.738q0.108,0.234.648,0.054,0.574-.144.5,0.432-1.15.792-1.96,1.476a11.555,11.555,0,0,0-1.512,1.548,14.149,14.149,0,0,0-1.367,2.07q-0.666,1.206-1.493,3.006a6.634,6.634,0,0,0,.036,5,6.9,6.9,0,0,0,.648,1.152q0.754,1.08,1.619-.108,0.611-.792,1.367-1.818t1.547-2.16q0.791-1.134,1.6-2.34t1.565-2.322a11.346,11.346,0,0,0,.36,1.908,8.464,8.464,0,0,0,.72,1.872,36.557,36.557,0,0,1-3.059,4.338,35.187,35.187,0,0,1-3.346,3.546q-1.222,1.188-.755,1.368a6.044,6.044,0,0,0,2.662-.576,10.22,10.22,0,0,0,3.22-2.07,26.367,26.367,0,0,0,3.293-3.726,8.191,8.191,0,0,0,2.59,1.692,13.581,13.581,0,0,0,3,.864,13.948,13.948,0,0,0,2.969.18,9.641,9.641,0,0,0,2.446-.4,10.807,10.807,0,0,0,2.051-.792,2.564,2.564,0,0,0,.954-0.774,0.664,0.664,0,0,0,.018-0.738,2.207,2.207,0,0,0-.72-0.684A14.2,14.2,0,0,1,778.95,491.927Zm-9.265-5.436q-0.792,1.206-1.691,2.538a12.92,12.92,0,0,1-.216-1.6,4.177,4.177,0,0,1,.144-1.314,0.6,0.6,0,0,0,.432-0.324q0-.144-0.432-0.216-0.036-.684-0.108-1.224a5.374,5.374,0,0,0-.216-0.972,2.772,2.772,0,0,0-.414-0.792,5.689,5.689,0,0,0-.7-0.756,4.332,4.332,0,0,1,1.133-.54q0.736-.252,1.349-0.432a8.551,8.551,0,0,1,1.026,1.35q0.592,0.918,1.169,1.854Q770.476,485.285,769.685,486.491Zm-5.811,1.35q-0.666.648-1.421,1.4t-1.529,1.512a18.86,18.86,0,0,1-1.457,1.3,6,6,0,0,1-.036-2.016,11.011,11.011,0,0,1,.647-2.61,10.267,10.267,0,0,1,1.439-2.592,6.84,6.84,0,0,1,2.3-1.962,1.246,1.246,0,0,1,.612.216,1.121,1.121,0,0,1,.378.63,6.471,6.471,0,0,1,.179,1.224q0.054,0.774.054,1.962A6.175,6.175,0,0,0,763.874,487.841Zm12.377,5.688a1.05,1.05,0,0,1-.917.144q-0.9-.072-1.6-0.2a10.018,10.018,0,0,1-1.314-.324,9.132,9.132,0,0,1-1.169-.468q-0.558-.27-1.169-0.63a22.79,22.79,0,0,0,1.439-1.98q0.755-1.152,1.583-2.412,0.864,1.368,1.6,2.664t1.349,2.448A0.851,0.851,0,0,1,776.251,493.529Zm-9.283,21.05a2.537,2.537,0,0,0-2.069-1.08,2.266,2.266,0,0,1-.863-0.234,2.221,2.221,0,0,1-.5-0.306c-0.216-.216-0.378-0.275-0.485-0.18a0.734,0.734,0,0,0,.053.72,1.993,1.993,0,0,1-.036.828,7.133,7.133,0,0,1-.539,1.422q-0.432.918-1.277,2.376T759,521.779a2.962,2.962,0,0,1-.594.63,2.031,2.031,0,0,1-.773.378,0.434,0.434,0,0,0-.288.306,1.744,1.744,0,0,0-.108.648,3.79,3.79,0,0,0,.108.846,6.75,6.75,0,0,0,.288.936q0.431,1.01.7,1.548a2.072,2.072,0,0,0,.486.7,0.312,0.312,0,0,0,.4.036,1.709,1.709,0,0,0,.395-0.45,2.659,2.659,0,0,1,1.188-1.152,0.479,0.479,0,0,1,.611.432,5.7,5.7,0,0,1,.144,1.152c0.024,0.5.03,1.057,0.018,1.656s-0.042,1.212-.09,1.836a12.654,12.654,0,0,1-.216,1.62,5.316,5.316,0,0,0,.252,2.826,7.751,7.751,0,0,0,2.051,2.754q0.432,0.432.81-.18a6.766,6.766,0,0,0,.521-2.628q0.108-2.23.2-3.834t0.2-2.79q0.108-1.188.252-2.016a8.7,8.7,0,0,1,.4-1.512,7.842,7.842,0,0,0,.162-0.792q0.088-.54.162-1.188c0.047-.432.09-0.858,0.126-1.278s0.065-.785.09-1.1c0.023-.239-0.025-0.36-0.144-0.36a0.3,0.3,0,0,0-.252.288q-0.54,1.548-.9,2.664t-0.791,2.376c-0.264-.408-0.492-0.761-0.684-1.062a10.119,10.119,0,0,1-.54-0.954,1.664,1.664,0,0,1-.054-0.2,0.374,0.374,0,0,1,.036-0.216c0.036-.084.1-0.2,0.18-0.36s0.21-.365.378-0.63q0.828-1.3,1.313-2.052t0.774-1.17c0.192-.275.342-0.48,0.45-0.612a2.351,2.351,0,0,1,.342-0.342,7.993,7.993,0,0,0,.845-0.828,1.218,1.218,0,0,0,.234-0.792A4,4,0,0,0,766.968,514.579Zm16.5,17.676a3.284,3.284,0,0,0-.845-0.882,3.656,3.656,0,0,0-1.17-.558,4.307,4.307,0,0,0-1.367-.144,0.581,0.581,0,0,1-.414-0.2,0.691,0.691,0,0,1-.126-0.63,3.3,3.3,0,0,1,.5-1.116,10.687,10.687,0,0,1,1.439-1.692,2.1,2.1,0,0,0,.648-1.3,2.481,2.481,0,0,0-.234-1.35,2.731,2.731,0,0,0-.936-1.062,2.51,2.51,0,0,0-1.457-.432,3.838,3.838,0,0,0-1.241.18,5.471,5.471,0,0,0-1.313.756,4.387,4.387,0,0,1-.252-1.26,7.938,7.938,0,0,1,0-1.512,2.122,2.122,0,0,1,.45-1.008,6.625,6.625,0,0,1,1.061-1.134,7.768,7.768,0,0,1,1.475-.99,6.568,6.568,0,0,1,1.691-.612,1.35,1.35,0,0,0,.918-0.576,1.013,1.013,0,0,0,.126-1.08,2.7,2.7,0,0,0-.81-1.206,2.3,2.3,0,0,0-1.241-.27,3.873,3.873,0,0,0-.81.09,5.569,5.569,0,0,0-.935.306,10.189,10.189,0,0,0-1.224.63q-0.7.416-1.709,1.062-0.431.29-.611,0.054a0.467,0.467,0,0,1-.108-0.45,4.367,4.367,0,0,0,.27-2.376,1.616,1.616,0,0,0-.882-1.116,13.92,13.92,0,0,0-2.123-.882,1.861,1.861,0,0,0-1.367.126,1.076,1.076,0,0,0-.54.468,0.208,0.208,0,0,0,.18.288,1.123,1.123,0,0,1,.9.594,2.358,2.358,0,0,1,.216,1.35,2.857,2.857,0,0,1-.2.774c-0.132.373-.306,0.792-0.522,1.26s-0.468.954-.755,1.458a15.927,15.927,0,0,1-.9,1.4,1.716,1.716,0,0,0-.18,1.206,9.371,9.371,0,0,0,.792,2.286,0.778,0.778,0,0,0,.593.594,2.4,2.4,0,0,0,1.026-.594c0.216-.167.461-0.36,0.737-0.576s0.546-.432.81-0.648,0.515-.414.755-0.594,0.432-.318.576-0.414q0,1.226-.036,2.484t-0.144,2.916q-0.18,2.916-.306,4.932t-0.2,3.384q-0.073,1.37-.09,2.2c-0.013.553-.007,1.008,0.018,1.368a4.091,4.091,0,0,0,.144.9q0.107,0.36.251,0.792a6.585,6.585,0,0,0,.756,1.692,9.073,9.073,0,0,0,.756,1.008,0.359,0.359,0,0,0,.287.126,0.726,0.726,0,0,0,.432-0.108,1.2,1.2,0,0,0,.4-0.414,1.489,1.489,0,0,0,.18-0.792q0.034-1.98,0-2.862a5.162,5.162,0,0,0-.18-1.314,11.657,11.657,0,0,1-.288-1.656q-0.108-.972-0.162-2.088t-0.036-2.322q0.018-1.206.09-2.43a9.425,9.425,0,0,1,.432-2.88c0.216-.479.468-0.648,0.755-0.5a3.736,3.736,0,0,1,.846.486,1.274,1.274,0,0,1,.45.738,2.577,2.577,0,0,1-.09,1.206,9.032,9.032,0,0,1-.774,1.818c-0.216.409-.39,0.774-0.522,1.1a2.4,2.4,0,0,0-.125,1.17,5.054,5.054,0,0,0,.251,1.152,1.87,1.87,0,0,0,.7.882,4.957,4.957,0,0,0,1.511.666,20.842,20.842,0,0,0,2.681.54,1.353,1.353,0,0,0,1.151-.216,1.853,1.853,0,0,0,.4-1.152A3.025,3.025,0,0,0,783.465,532.255ZM782.152,561.9a1.524,1.524,0,0,0-.882-1.026,4.8,4.8,0,0,0-2.518-.5,12.6,12.6,0,0,0-1.961.27q-1.134.234-2.681,0.7a2.924,2.924,0,0,0-.971-1.242,3.121,3.121,0,0,0-1.511-.63,24.327,24.327,0,0,1,1.961-1.818q1.1-.918,2.356-1.926a1.2,1.2,0,0,0,.432-0.63,1.414,1.414,0,0,0,0-.774,1.927,1.927,0,0,0-.4-0.738,1.822,1.822,0,0,0-.755-0.522q-0.756-.288-1.314-0.45a4.562,4.562,0,0,0-1.133-.18,7.009,7.009,0,0,0-1.277.09q-0.7.108-1.745,0.36a6.287,6.287,0,0,1-1.529.18,8.921,8.921,0,0,1-1.458-.108,0.792,0.792,0,0,0-.755.09c-0.1.132-.013,0.27,0.252,0.414a1.166,1.166,0,0,1,.342.342,1.829,1.829,0,0,1,.233.45A3.3,3.3,0,0,0,768.1,556a9.122,9.122,0,0,0,1.907,1.026q-1.116,1.3-2.069,2.232a23.7,23.7,0,0,1-2.015,1.764q-1.062.828-2.393,1.674t-3.238,1.962a0.717,0.717,0,0,0-.522.54q0.054,0.216.666,0,2.375-.9,4.749-1.872t4.426-2.052a3.455,3.455,0,0,1,1.547,1.116q-2.59.828-5.451,1.944t-5.235,2.268a5.615,5.615,0,0,1-1.727.648,0.431,0.431,0,0,1-.468-0.4q-0.072-.5-0.252-0.486a0.6,0.6,0,0,0-.324.486,2.471,2.471,0,0,0-.071,1.44,5.29,5.29,0,0,0,.935,1.692,1.706,1.706,0,0,0,1.295.648,3.743,3.743,0,0,0,2.015-.54q1.08-.54,2.285-1.116t2.482-1.206q1.278-.63,2.555-1.242t2.465-1.188q0.108,1.62.126,2.952t-0.036,2.538q-0.054,1.206-.162,2.358t-0.252,2.448a2.65,2.65,0,0,1-.432,1.17,2.2,2.2,0,0,1-.971.72,6.039,6.039,0,0,1-1.655.378,23.906,23.906,0,0,1-2.483.108,0.7,0.7,0,0,0-.666.18q-0.054.18,0.45,0.36a19.374,19.374,0,0,1,2.968,1.278,12.39,12.39,0,0,1,2.429,1.638,0.869,0.869,0,0,0,1.439-.072,12.491,12.491,0,0,0,1.134-1.764,8.958,8.958,0,0,0,.719-1.926,14.614,14.614,0,0,0,.378-2.448q0.108-1.386.108-3.366v-2.268q0-1.008-.054-1.944t-0.108-1.854q-0.054-.918-0.162-2a8.293,8.293,0,0,1,2.429-.54,8.144,8.144,0,0,1,2.644.216,3.99,3.99,0,0,0,1.475.216,1.364,1.364,0,0,0,.828-0.612A1.414,1.414,0,0,0,782.152,561.9Zm0.989,49.05a1.954,1.954,0,0,0-.324-1.26,5.558,5.558,0,0,0-1.223-1.332,13.569,13.569,0,0,0-1.979-1.332,10.069,10.069,0,0,0-1.493-.63,12.935,12.935,0,0,0-1.655-.432,16.806,16.806,0,0,0-1.673-.234,11.075,11.075,0,0,0-1.511-.036c0.191-.455.36-0.887,0.5-1.3a13.158,13.158,0,0,0,.378-1.278q0.162-.666.288-1.458t0.2-1.836q0.108-1.546.252-2.88a8.051,8.051,0,0,1,.432-2.052,3.287,3.287,0,0,0,.108-0.792,1.63,1.63,0,0,0-.162-0.7,3.174,3.174,0,0,0-.522-0.738,12.68,12.68,0,0,0-.972-0.936,3.9,3.9,0,0,0-2.374-1.1,3.084,3.084,0,0,0-2.267.954,7.049,7.049,0,0,0-1.007,1.566q-0.612,1.17-1.44,2.934a3.968,3.968,0,0,0-1.133-1.566c-0.276-.131-0.4.114-0.378,0.738a6.322,6.322,0,0,1-.09.936,11.058,11.058,0,0,1-.269,1.224,10.736,10.736,0,0,0-.378,1.872q-0.162,1.224-.234,2.484a20.141,20.141,0,0,0-.018,2.25,1.557,1.557,0,0,0,.306,1.134,0.583,0.583,0,0,1,.144.882,6.06,6.06,0,0,1-1.8,1.6,2.057,2.057,0,0,0-.432.414,3.188,3.188,0,0,0-.18.414q-0.792.468-1.277,0.738t-0.81.432a3.418,3.418,0,0,1-.576.234,3.36,3.36,0,0,1-.539.108,0.613,0.613,0,0,0-.45.45,7.332,7.332,0,0,0-.2,1.53,1.078,1.078,0,0,0,.342,1.188,1.536,1.536,0,0,0,1.2-.36q1.115-.683,1.943-1.17t1.565-.828q0.738-.342,1.457-0.594a16.062,16.062,0,0,1,1.656-.468,4.587,4.587,0,0,1-.414.936,8.208,8.208,0,0,1-.756,1.062,16.413,16.413,0,0,1-1.241,1.332q-0.756.738-1.907,1.746a1.179,1.179,0,0,0-.4.576q-0.144.4-.432,1.4-0.323,1.476,1.476.432a13.757,13.757,0,0,0,2.374-1.71,31.223,31.223,0,0,0,2.393-2.322,23.886,23.886,0,0,0,2-2.448,9.807,9.807,0,0,0,1.187-2.088,3.7,3.7,0,0,1,.774-0.2q0.52-.088,1.241-0.162a54.994,54.994,0,0,1-4.947,7.7,12.924,12.924,0,0,1-4.516,3.96,0.522,0.522,0,0,0-.413.486,0.747,0.747,0,0,0,.737.45,3.386,3.386,0,0,0,.972.072,4.245,4.245,0,0,0,.971-0.2,5.345,5.345,0,0,0,1.079-.5q0.576-.342,1.332-0.882,0.826,0.756,1.745,1.476T771.34,622a1.616,1.616,0,0,0,.953.432,2.462,2.462,0,0,0,.882-0.18,10.741,10.741,0,0,0,2.231-1.206,17.345,17.345,0,0,0,4.029-3.924,18.788,18.788,0,0,0,1.511-2.394q0.4-.791.648-1.26c0.168-.311.306-0.558,0.414-0.738s0.192-.318.252-0.414a1.405,1.405,0,0,1,.2-0.252A1.714,1.714,0,0,0,783.141,610.951Zm-13.42-13.338a4.706,4.706,0,0,0-2.519.27c-0.048-.167-0.09-0.336-0.126-0.5s-0.078-.347-0.126-0.54a3.684,3.684,0,0,1,.432-1.3,2.934,2.934,0,0,1,1.008-1.188,5.155,5.155,0,0,1,.773-0.27,11.966,11.966,0,0,1,1.637-.306,1.615,1.615,0,0,1,.684,0,0.7,0.7,0,0,1,.36.594,7.593,7.593,0,0,1,.054,1.692q-0.054,1.17-.27,3.294A3.223,3.223,0,0,0,769.721,597.613Zm-2.051,4.662a7.513,7.513,0,0,1-.972,1.152,10.94,10.94,0,0,1,0-2.178,17.2,17.2,0,0,1,.324-1.854,2.088,2.088,0,0,1,1.655.2,0.655,0.655,0,0,1,.108.882A18.34,18.34,0,0,1,767.67,602.275Zm3.184,1.458a8.754,8.754,0,0,1-.306.954,1.137,1.137,0,0,1-.647.7,1.084,1.084,0,0,1-.828-0.2q0.72-1.007,1.169-1.692t0.846-1.224A11.215,11.215,0,0,1,770.854,603.733Zm7.466,8.8a29.692,29.692,0,0,1-1.583,2.538,23.7,23.7,0,0,1-1.763,2.25,7.1,7.1,0,0,1-1.727,1.476,3.051,3.051,0,0,1-1.583.306,5.934,5.934,0,0,1-2.231-.774,18.871,18.871,0,0,0,2.033-2.3q1.168-1.512,2.267-3.114t1.906-2.952a7.888,7.888,0,0,0,.918-1.854,3.636,3.636,0,0,1,2.537.684,1.249,1.249,0,0,1,.449,1.368Q779.039,611.239,778.32,612.535Z" transform="translate(-755.969 -276.406)"/>
</svg>
