<svg xmlns="http://www.w3.org/2000/svg" width="31.813" height="343.563" viewBox="0 0 31.813 343.563">
  <metadata><?xpacket begin="﻿" id="W5M0MpCehiHzreSzNTczkc9d"?>
<x:xmpmeta xmlns:x="adobe:ns:meta/" x:xmptk="Adobe XMP Core 5.6-c138 79.159824, 2016/09/14-01:09:01        ">
   <rdf:RDF xmlns:rdf="http://www.w3.org/1999/02/22-rdf-syntax-ns#">
      <rdf:Description rdf:about=""/>
   </rdf:RDF>
</x:xmpmeta>
                                                                                                    
                                                                                                    
                                                                                                    
                                                                                                    
                                                                                                    
                                                                                                    
                                                                                                    
                                                                                                    
                                                                                                    
                                                                                                    
                                                                                                    
                                                                                                    
                                                                                                    
                                                                                                    
                                                                                                    
                                                                                                    
                                                                                                    
                                                                                                    
                                                                                                    
                                                                                                    
                           
<?xpacket end="w"?></metadata>
<defs>
    <style>
      .cls-1 {
        fill: #464d53;
        fill-rule: evenodd;
      }
    </style>
  </defs>
  <path id="天下大事_必作于细_拷贝" data-name="天下大事，必作于细 拷贝" class="cls-1" d="M725.076,342.461a5.287,5.287,0,0,0-1.206-.882,18.883,18.883,0,0,0-2.052-.972q-1.26-.522-3.24-1.206a6.2,6.2,0,0,1-1.062-.5,14.824,14.824,0,0,1-1.26-.81q-0.63-.45-1.188-0.918a6.748,6.748,0,0,1-.882-0.864,10.517,10.517,0,0,0-.936-0.882q-0.648-.558-1.422-1.152t-1.62-1.152a12.748,12.748,0,0,0-1.53-.882,20.41,20.41,0,0,1,1.782-1.026q1.134-.594,2.376-1.188t2.43-1.08a19.645,19.645,0,0,1,1.944-.7,1.45,1.45,0,0,0,1.1-.738,0.906,0.906,0,0,0-.414-0.918,4.7,4.7,0,0,0-1.89-1.08,2.028,2.028,0,0,0-1.53.072q-0.432.252-1.188,0.648t-1.6.81q-0.846.414-1.638,0.774t-1.26.576a3.773,3.773,0,0,0-.36-1.1,6.026,6.026,0,0,0-.684-1.1q0.612-.54,1.584-1.314t1.944-1.512q0.972-.738,1.728-1.26a7.7,7.7,0,0,1,.936-0.594,1.245,1.245,0,0,0,.738-0.5,1.113,1.113,0,0,0,.162-0.81,1.876,1.876,0,0,0-.45-0.9,3.324,3.324,0,0,0-1.134-.81,7.532,7.532,0,0,0-1.224-.432,5.136,5.136,0,0,0-1.026-.162,2.076,2.076,0,0,0-.72.072,0.307,0.307,0,0,0-.27.234q-0.072.5-2.16,1.512a8.885,8.885,0,0,1-1.926.72,4.253,4.253,0,0,1-1.458.144q-1.188-.108-0.5,1.188a5.253,5.253,0,0,0,.684.9,8.464,8.464,0,0,0,.9.846,6.1,6.1,0,0,0,.936.63,2.293,2.293,0,0,0,.792.288q-0.144.144-.27,0.288t-0.27.324a0.749,0.749,0,0,0-.684-0.162,1.1,1.1,0,0,0,.036.846q-0.468.54-.9,1.08t-0.72.936q-0.36.5,0.018,0.72t1.386-.576a8.109,8.109,0,0,1-.324,2.16q-1.8.936-2.844,1.422t-1.6.684a1.752,1.752,0,0,1-.7.162,0.131,0.131,0,0,1-.108-0.18q0.108-.36-0.2-0.4a0.687,0.687,0,0,0-.594.468,2.706,2.706,0,0,0-.072,1.98,1.123,1.123,0,0,0,.648.666,4.231,4.231,0,0,0,1.3.378,7.215,7.215,0,0,0,1.62.036,5.175,5.175,0,0,0,1.62-.4,15.012,15.012,0,0,1-.756,2.718,7.837,7.837,0,0,1-1.08,1.89,8.731,8.731,0,0,1-2.466,2.034,6.019,6.019,0,0,1-2.358.774q-0.648.034-.684,0.342a0.589,0.589,0,0,0,.5.522,6.071,6.071,0,0,0,2.61.342,9.415,9.415,0,0,0,3.582-1.134,4.954,4.954,0,0,0,1.944-1.62,3.912,3.912,0,0,0,.648-2.052q0.036-1.008.162-2.088a18.527,18.527,0,0,1,.342-2.016q1.008,0.252,1.764.522a6.921,6.921,0,0,1,1.4.684,6.463,6.463,0,0,1,1.224,1.026,17.843,17.843,0,0,1,1.3,1.584,31.253,31.253,0,0,0,2.3,2.862,16.273,16.273,0,0,0,2.052,1.908,7.827,7.827,0,0,0,1.854,1.08,6.327,6.327,0,0,0,1.746.414,20.312,20.312,0,0,0,2.826.072,7.244,7.244,0,0,0,1.854-.36,0.924,0.924,0,0,0,.576-0.378,0.756,0.756,0,0,0-.18-0.594A4.741,4.741,0,0,0,725.076,342.461Zm-7.722,14.34a4.6,4.6,0,0,0-3.276.5,7,7,0,0,1-1.386.558q-0.882.27-2.61,0.666-0.612.144-1.926,0.558t-2.934.972q-1.62.558-3.348,1.17t-3.168,1.152q-0.9.324-1.458,0.5t-0.972.27a3.455,3.455,0,0,1-.72.09q-0.306,0-.666-0.036a0.891,0.891,0,0,0-.7.126q-0.126.162,0.27,0.522A18.937,18.937,0,0,0,697,365.729a6.651,6.651,0,0,0,1.962.828,3.047,3.047,0,0,0,1.584-.054,4.212,4.212,0,0,0,1.4-.81,8.551,8.551,0,0,1,1.26-.846q0.684-.378,1.386-0.684t1.386-.558a9.82,9.82,0,0,0,1.224-.54q0.144,2.556.2,4.536t0.054,3.546q0,1.566-.072,2.79t-0.18,2.268q-0.18,1.98-.18,3.294a8.719,8.719,0,0,0,.234,2.2,3.694,3.694,0,0,0,.72,1.458,5.558,5.558,0,0,0,1.278,1.08,1.981,1.981,0,0,0,1.116.414,0.939,0.939,0,0,0,.738-0.36,1.669,1.669,0,0,0,.306-0.954,4.132,4.132,0,0,0-.18-1.368,16.008,16.008,0,0,1-.5-1.962q-0.216-1.1-.378-2.178t-0.234-2.016q-0.072-.936-0.072-1.476,0-.648.072-1.4t0.18-1.494q0.108-.738.252-1.35a4.568,4.568,0,0,1,.324-0.972,2.478,2.478,0,0,1,1.062-1.1A0.923,0.923,0,0,1,713,368a2.346,2.346,0,0,1,1.134,1.728q-0.054.756-1.71,0.756a0.26,0.26,0,0,0-.324.252,0.479,0.479,0,0,0,.18.4,5.905,5.905,0,0,0,2.088.954,2.756,2.756,0,0,0,1.674-.108,2.211,2.211,0,0,0,1.1-1.116,4.812,4.812,0,0,0,.4-2.106,3.35,3.35,0,0,0-1.134-1.908,4.735,4.735,0,0,0-2-.936,4.654,4.654,0,0,0-2.466-.054,1.779,1.779,0,0,0-1.134,1.134,1.018,1.018,0,0,1-.432.666,1.505,1.505,0,0,1-.4-0.018q-0.036-.576-0.018-1.35t0.09-1.584q0.072-.81.2-1.62a14.863,14.863,0,0,1,.306-1.494q1.368-.36,2.5-0.576t2.124-.324a17.451,17.451,0,0,1,1.89-.108q0.9,0,1.836.072a1.66,1.66,0,0,0,1.71-.5,1.177,1.177,0,0,0-.306-1.476A5.068,5.068,0,0,0,717.354,356.8Zm0.612,47.6a2.331,2.331,0,0,0-.792-0.774,2.984,2.984,0,0,0-1.152-.4,4.267,4.267,0,0,0-1.3.018q-0.864.072-1.4,0.09a4.015,4.015,0,0,1-.9-0.054,1.922,1.922,0,0,1-.648-0.252,4.634,4.634,0,0,1-.612-0.468q0.144-.54.324-1.314t0.288-1.278a2.444,2.444,0,0,0-.468-2.232,5.719,5.719,0,0,0-3.024-1.368,1.8,1.8,0,0,0-1.242.072,0.943,0.943,0,0,0-.522.936,3.008,3.008,0,0,0,.432,1.314,14.3,14.3,0,0,0,1.224,1.854q-0.468,2.628-.81,4.212t-0.63,2.7a19.161,19.161,0,0,1-3.474,2.16,8.768,8.768,0,0,1-3.366.9,0.442,0.442,0,0,0-.486.288,1.687,1.687,0,0,0,.414,1.08,3.486,3.486,0,0,0,1.908,1.566,6.237,6.237,0,0,0,3.2.09q-0.4,1.26-.828,2.412a14.864,14.864,0,0,1-1.008,2.16,9,9,0,0,1-1.386,1.836,7.467,7.467,0,0,1-1.926,1.4q-0.756.358-.5-0.72,0.216-.756-0.36-0.648a3.3,3.3,0,0,0-1.512,1.548,1.224,1.224,0,0,0-.126,1.386q0.378,0.594,2,.522a14.441,14.441,0,0,0,3.816-.522,4.707,4.707,0,0,0,2.268-1.512,8.505,8.505,0,0,0,1.422-2.862q0.558-1.8,1.278-4.572a13.9,13.9,0,0,1,1.71-2.448,17.9,17.9,0,0,1,2.214-2.16,19.143,19.143,0,0,1,2.412-1.692,12.219,12.219,0,0,1,2.3-1.08,5.251,5.251,0,0,0,1.242-.5,0.775,0.775,0,0,0,.27-0.576A1.881,1.881,0,0,0,717.966,404.4Zm3.294,15.246a4.125,4.125,0,0,0-1.4-1.584,11.021,11.021,0,0,0-2.664-1.3A38.44,38.44,0,0,0,713,415.6a4.789,4.789,0,0,0-.7-0.036q-0.486,0-1.116.036t-1.3.108q-0.666.072-1.206,0.18-1.188.216-.216,0.36,0.9,0.108,1.494.216a8.143,8.143,0,0,1,.99.234,2.547,2.547,0,0,1,.7.342,7.345,7.345,0,0,1,.666.54,42.95,42.95,0,0,0,3.924,3.15q1.872,1.313,3.636,2.358a1.425,1.425,0,0,0,1.368.234,1.761,1.761,0,0,0,.468-1.638A5.117,5.117,0,0,0,721.26,419.645Zm-13.554-20.862a0.3,0.3,0,0,1,.108-0.4q0.468-.18.4,1.08A1.352,1.352,0,0,1,707.706,398.783Zm3.474,5.886a4.895,4.895,0,0,0-.666.414q0.108-.4.216-0.81t0.18-.81a2.985,2.985,0,0,1,.594.27,2.479,2.479,0,0,1,.558.486Q711.558,404.471,711.18,404.669Zm6.03,31.856a2.98,2.98,0,0,0-1.458-.288,10.693,10.693,0,0,0-2.25.36q-1.368.344-3.528,1.062c0.024-.6.024-1.1,0-1.494a4.563,4.563,0,0,0-.18-1.062,3.781,3.781,0,0,0-.432-0.918q-0.288-.448-0.756-1.1c-0.072-.095-0.132-0.18-0.18-0.252a0.44,0.44,0,0,0-.2-0.162,0.886,0.886,0,0,0-.342-0.054,2.954,2.954,0,0,0-.648.108,1.23,1.23,0,0,0-.792.486,0.5,0.5,0,0,0,0,.738,1.408,1.408,0,0,1,.234.306,1.886,1.886,0,0,1,.144.612q0.054,0.452.108,1.386t0.126,2.592q-2.664.972-4.554,1.638t-3.168,1.062q-1.278.4-1.98,0.558a3.036,3.036,0,0,1-.918.126,4.087,4.087,0,0,0-.63-0.018,0.463,0.463,0,0,0-.378.18,0.6,0.6,0,0,0,0,.5,3.418,3.418,0,0,0,.54.918,2.7,2.7,0,0,0,.774.756,2.856,2.856,0,0,0,.954.4,3.443,3.443,0,0,0,.99.072,2.136,2.136,0,0,0,.882-0.252,15.691,15.691,0,0,1,1.512-.72q0.936-.395,2.016-0.81t2.16-.792q1.08-.378,1.944-0.63a0.918,0.918,0,0,1,.216.432,0.744,0.744,0,0,1-.306.558,7.259,7.259,0,0,1-1.152.864,23.956,23.956,0,0,1-2.358,1.278,1.894,1.894,0,0,0-.63.666,6.071,6.071,0,0,0-.594,1.638,0.862,0.862,0,0,0,.108.828,0.652,0.652,0,0,0,.792.072q0.648-.216,1.728-0.486a11.566,11.566,0,0,0,2.808-1.278,7.761,7.761,0,0,1-1.3,1.152,14.351,14.351,0,0,1-1.62,1.026,16.2,16.2,0,0,1-1.566.756,4.143,4.143,0,0,1-1.17.342,0.874,0.874,0,0,0-.648.468,6.789,6.789,0,0,0-.468,1.548,1,1,0,0,0,.342,1.206,1.1,1.1,0,0,0,1.1-.054q1.548-.864,2.736-1.4a14.7,14.7,0,0,1,2.268-.828,1.758,1.758,0,0,1-.036.378,0.789,0.789,0,0,1-.306.378,5.661,5.661,0,0,1-.846.522q-0.576.307-1.62,0.81a3.1,3.1,0,0,0-1.188,1.026,2.077,2.077,0,0,0-.468,1.314,0.993,0.993,0,0,0,.486.846,6.58,6.58,0,0,0,1.71.558,6.566,6.566,0,0,1-1.26.972,1.909,1.909,0,0,1-1.08.144,0.723,0.723,0,0,0-.7.45,2.294,2.294,0,0,0-.2,1.314,1.615,1.615,0,0,0,.81,1.422,1.685,1.685,0,0,0,1.422.054q0.972-.4,1.71-0.72t1.71-.792c0.024,0.216.048,0.421,0.072,0.612a4.951,4.951,0,0,1,.036.612q0,0.324-.018.72t-0.054.972a0.513,0.513,0,0,1-.324.432,2.7,2.7,0,0,1-.846.27,5.468,5.468,0,0,1-1.206.054,10.722,10.722,0,0,1-1.44-.18,0.634,0.634,0,0,0-.666.09q-0.126.2,0.486,0.594A28.664,28.664,0,0,1,706.5,465.4a12.974,12.974,0,0,1,1.6,1.458,1.025,1.025,0,0,0,.522.4,0.726,0.726,0,0,0,.414-0.432,10.2,10.2,0,0,0,.864-1.782,3.875,3.875,0,0,0,.252-1.17q-0.036-1.584-.018-2.772t0.09-2.484a18,18,0,0,1,2.25-.216,17.319,17.319,0,0,1,1.962.036,1.5,1.5,0,0,0,1.026-.108,1.351,1.351,0,0,0,.09-0.9c0.24-.36.444-0.677,0.612-0.954s0.348-.605.54-0.99,0.414-.864.666-1.44,0.582-1.355.99-2.34a2.724,2.724,0,0,0,.27-1.656A3.913,3.913,0,0,0,717.5,448.5a5.227,5.227,0,0,0-2.61-1.188,17.131,17.131,0,0,0-4.842.036,8.833,8.833,0,0,0,1.62-1.1q0.684-.594,1.188-0.99a1.2,1.2,0,0,0,.342-0.5,1.053,1.053,0,0,0,.036-0.666,1.406,1.406,0,0,0-.45-0.666,2.529,2.529,0,0,0-1.08-.5q2.16-1.33,3.366-2.07t1.836-1.08a9.641,9.641,0,0,1,.864-0.432,2.819,2.819,0,0,1,.414-0.126,0.77,0.77,0,0,0,.666-0.576,1.321,1.321,0,0,0-.522-1.224A4.383,4.383,0,0,0,717.21,436.525Zm-2.07,14.364a8.782,8.782,0,0,1-.252,1.008q-0.162.523-.36,1.026t-0.342.9q-0.792,1.91-1.368,1.782t-1.044-1.818a5.894,5.894,0,0,0,.828-0.918,1.355,1.355,0,0,0,.288-0.756,0.76,0.76,0,0,0-.378-0.612,3.4,3.4,0,0,0-1.206-.45,4.208,4.208,0,0,0-.774-0.72,1.016,1.016,0,0,1-.486-0.54,15.417,15.417,0,0,1,3.978-.45,1.083,1.083,0,0,1,1.17.738A2.85,2.85,0,0,1,715.14,450.889Zm-4.626,5.058a3.981,3.981,0,0,0-.648.036q0.072-.575.144-0.882a3.594,3.594,0,0,1,.216-0.63c0.144-.335.36-0.378,0.648-0.126a2.131,2.131,0,0,1,.4,1.638A6.571,6.571,0,0,0,710.514,455.947Zm-3.33-1.206c-0.156.157-.336,0.324-0.54,0.5s-0.408.355-.612,0.522-0.354.288-.45,0.36a0.747,0.747,0,0,1-.36-0.558,0.8,0.8,0,0,1,.216-0.63,1.794,1.794,0,0,1,.774-0.468,2.756,2.756,0,0,1,1.278-.072A2.664,2.664,0,0,1,707.184,454.741Zm6.138-14.184a8.806,8.806,0,0,1-3.42.99q0.684-.432,1.566-0.9t1.818-.9a19.383,19.383,0,0,1,1.89-.756,9.462,9.462,0,0,1,1.746-.432Q714.942,439.713,713.322,440.557Zm3.456,40.087a3.047,3.047,0,0,0-.5,1.08q0,0.252.18,0.252,0.612,0,2.052-2.088a7.1,7.1,0,0,0,1.44-4,5.055,5.055,0,0,0-.108-1.026,0.617,0.617,0,0,0-.684-0.522,2.222,2.222,0,0,0-1.8,1.44,4.762,4.762,0,0,0-.792,2.052,0.884,0.884,0,0,0,1.08.9A9.343,9.343,0,0,1,716.778,480.644Zm5.706,45.21a8.091,8.091,0,0,0-3.978-1.656q-0.54-.072-0.558.2a1.022,1.022,0,0,0,.63.666,1.193,1.193,0,0,1,.684.684q0.144,0.432.324,1.044,0.108,0.828-.432.864-0.684.108-1.494,0.162t-1.638.162q-0.5.072-.45,0.216a1.3,1.3,0,0,0,.81.252,3.862,3.862,0,0,1,1.6.7q0.774,0.558,1.818,1.422a5.528,5.528,0,0,0,1.584,1.116,1.093,1.093,0,0,0,1.08-.054,2.16,2.16,0,0,0,.7-1.116,12.128,12.128,0,0,0,.45-2.07A2.808,2.808,0,0,0,722.484,525.854Zm-5.328,7.542q-1.854-1.782-5.022-5.454,0.936-1.62,1.908-3.078a14.882,14.882,0,0,1,1.728-2.214,5.2,5.2,0,0,0,1.44-2.214,2.031,2.031,0,0,0-.54-1.746,3.612,3.612,0,0,0-.9-0.882,3.2,3.2,0,0,0-1.26-.378,4.427,4.427,0,0,1-.792-0.162,2.68,2.68,0,0,1-.828-0.414q-0.612-.468-0.774-0.234a1.167,1.167,0,0,0,.234.99,4.781,4.781,0,0,1,.45,1.026,2.145,2.145,0,0,1-.108,1.188,10.047,10.047,0,0,1-.936,1.926q-0.7,1.188-2.034,3.2a14.639,14.639,0,0,1-1.944-2.772,5.5,5.5,0,0,0,1.26-.684,2.931,2.931,0,0,0,.792-0.972,3.294,3.294,0,0,0,.558-1.44,1.985,1.985,0,0,0-.594-1.26,5.651,5.651,0,0,0-1.386-1.188,2.841,2.841,0,0,0-1.458-.468q-0.72,0-1.458-.072a9.748,9.748,0,0,1-1.206-.18q-1.116-.18-1.26.126t0.612,0.81q0.4,0.288.972,0.63a11.294,11.294,0,0,0,1.584.738,0.539,0.539,0,0,1,.324.324,0.815,0.815,0,0,1-.162.7,5.636,5.636,0,0,1-1.1,1.17,22.337,22.337,0,0,1-2.448,1.764,4.822,4.822,0,0,0-1.26.018,1.948,1.948,0,0,0-1.044.594,0.83,0.83,0,0,0-.4.738q0.108,0.234.648,0.054,0.576-.144.5,0.432-1.152.792-1.962,1.476a11.555,11.555,0,0,0-1.512,1.548,14.069,14.069,0,0,0-1.368,2.07q-0.666,1.206-1.494,3.006a6.634,6.634,0,0,0,.036,5,6.971,6.971,0,0,0,.648,1.152q0.756,1.08,1.62-.108,0.612-.792,1.368-1.818t1.548-2.16q0.792-1.134,1.6-2.34t1.566-2.322a11.346,11.346,0,0,0,.36,1.908,8.464,8.464,0,0,0,.72,1.872,36.561,36.561,0,0,1-3.06,4.338,35.314,35.314,0,0,1-3.348,3.546q-1.224,1.188-.756,1.368a6.035,6.035,0,0,0,2.664-.576,10.238,10.238,0,0,0,3.222-2.07,26.305,26.305,0,0,0,3.294-3.726A8.211,8.211,0,0,0,709,537.878a13.6,13.6,0,0,0,3.006.864,13.957,13.957,0,0,0,2.97.18,9.658,9.658,0,0,0,2.448-.4,10.821,10.821,0,0,0,2.052-.792,2.556,2.556,0,0,0,.954-0.774,0.662,0.662,0,0,0,.018-0.738,2.207,2.207,0,0,0-.72-0.684A14.224,14.224,0,0,1,717.156,533.4Zm-9.27-5.436q-0.792,1.206-1.692,2.538a13.315,13.315,0,0,1-.216-1.6,4.206,4.206,0,0,1,.144-1.314,0.6,0.6,0,0,0,.432-0.324q0-.144-0.432-0.216-0.036-.684-0.108-1.224a5.291,5.291,0,0,0-.216-0.972,2.772,2.772,0,0,0-.414-0.792,5.636,5.636,0,0,0-.7-0.756,4.356,4.356,0,0,1,1.134-.54q0.738-.252,1.35-0.432a8.551,8.551,0,0,1,1.026,1.35q0.594,0.918,1.17,1.854Q708.678,526.754,707.886,527.96Zm-5.814,1.35q-0.666.648-1.422,1.4t-1.53,1.512a18.677,18.677,0,0,1-1.458,1.3,6.055,6.055,0,0,1-.036-2.016,11.064,11.064,0,0,1,.648-2.61,10.271,10.271,0,0,1,1.44-2.592,6.843,6.843,0,0,1,2.3-1.962,1.246,1.246,0,0,1,.612.216,1.11,1.11,0,0,1,.378.63,6.379,6.379,0,0,1,.18,1.224q0.054,0.774.054,1.962A6.176,6.176,0,0,0,702.072,529.31ZM714.456,535a1.052,1.052,0,0,1-.918.144q-0.9-.072-1.6-0.2a10.018,10.018,0,0,1-1.314-.324,9.146,9.146,0,0,1-1.17-.468q-0.558-.27-1.17-0.63a22.576,22.576,0,0,0,1.44-1.98l1.584-2.412q0.864,1.368,1.6,2.664t1.35,2.448A0.851,0.851,0,0,1,714.456,535Zm-9.288,21.05a2.54,2.54,0,0,0-2.07-1.08,2.271,2.271,0,0,1-.864-0.234,2.221,2.221,0,0,1-.5-0.306c-0.216-.216-0.378-0.275-0.486-0.18a0.732,0.732,0,0,0,.054.72,1.993,1.993,0,0,1-.036.828,7.215,7.215,0,0,1-.54,1.422q-0.432.918-1.278,2.376t-2.25,3.654a2.939,2.939,0,0,1-.594.63,2.028,2.028,0,0,1-.774.378,0.436,0.436,0,0,0-.288.306,1.744,1.744,0,0,0-.108.648,3.79,3.79,0,0,0,.108.846,6.888,6.888,0,0,0,.288.936q0.432,1.01.7,1.548a2.072,2.072,0,0,0,.486.7,0.312,0.312,0,0,0,.4.036,1.693,1.693,0,0,0,.4-0.45,2.659,2.659,0,0,1,1.188-1.152,0.48,0.48,0,0,1,.612.432,5.7,5.7,0,0,1,.144,1.152c0.024,0.5.03,1.057,0.018,1.656s-0.042,1.213-.09,1.836a12.654,12.654,0,0,1-.216,1.62,5.316,5.316,0,0,0,.252,2.826,7.743,7.743,0,0,0,2.052,2.754q0.432,0.432.81-.18a6.761,6.761,0,0,0,.522-2.628q0.108-2.23.2-3.834t0.2-2.79q0.108-1.188.252-2.016a8.719,8.719,0,0,1,.4-1.512,7.842,7.842,0,0,0,.162-0.792q0.09-.54.162-1.188c0.048-.432.09-0.857,0.126-1.278s0.066-.785.09-1.1c0.024-.239-0.024-0.36-0.144-0.36a0.3,0.3,0,0,0-.252.288q-0.54,1.549-.9,2.664t-0.792,2.376q-0.4-.611-0.684-1.062a10.119,10.119,0,0,1-.54-0.954,1.615,1.615,0,0,1-.054-0.2,0.374,0.374,0,0,1,.036-0.216q0.054-.124.18-0.36t0.378-.63q0.828-1.3,1.314-2.052t0.774-1.17q0.288-.412.45-0.612a2.4,2.4,0,0,1,.342-0.342,7.928,7.928,0,0,0,.846-0.828,1.218,1.218,0,0,0,.234-0.792A4,4,0,0,0,705.168,556.048Zm16.506,17.676a3.288,3.288,0,0,0-.846-0.882,3.656,3.656,0,0,0-1.17-.558,4.339,4.339,0,0,0-1.368-.144,0.581,0.581,0,0,1-.414-0.2,0.691,0.691,0,0,1-.126-0.63,3.3,3.3,0,0,1,.5-1.116,10.7,10.7,0,0,1,1.44-1.692,2.1,2.1,0,0,0,.648-1.3,2.472,2.472,0,0,0-.234-1.35,2.731,2.731,0,0,0-.936-1.062,2.515,2.515,0,0,0-1.458-.432,3.849,3.849,0,0,0-1.242.18,5.493,5.493,0,0,0-1.314.756,4.422,4.422,0,0,1-.252-1.26,7.939,7.939,0,0,1,0-1.512,2.132,2.132,0,0,1,.45-1.008,6.674,6.674,0,0,1,1.062-1.134,7.776,7.776,0,0,1,1.476-.99,6.562,6.562,0,0,1,1.692-.612,1.346,1.346,0,0,0,.918-0.576,1.011,1.011,0,0,0,.126-1.08,2.694,2.694,0,0,0-.81-1.206,2.3,2.3,0,0,0-1.242-.27,3.873,3.873,0,0,0-.81.09,5.7,5.7,0,0,0-.936.306,10.189,10.189,0,0,0-1.224.63q-0.7.416-1.71,1.062-0.432.289-.612,0.054a0.472,0.472,0,0,1-.108-0.45,4.348,4.348,0,0,0,.27-2.376,1.616,1.616,0,0,0-.882-1.116,13.963,13.963,0,0,0-2.124-.882,1.863,1.863,0,0,0-1.368.126,1.08,1.08,0,0,0-.54.468,0.207,0.207,0,0,0,.18.288,1.123,1.123,0,0,1,.9.594,2.35,2.35,0,0,1,.216,1.35,2.818,2.818,0,0,1-.2.774c-0.132.373-.306,0.792-0.522,1.26s-0.468.954-.756,1.458a15.7,15.7,0,0,1-.9,1.4,1.717,1.717,0,0,0-.18,1.206,9.371,9.371,0,0,0,.792,2.286,0.78,0.78,0,0,0,.594.594,2.384,2.384,0,0,0,1.026-.594c0.216-.167.462-0.36,0.738-0.576s0.546-.432.81-0.648,0.516-.414.756-0.594,0.432-.317.576-0.414q0,1.226-.036,2.484t-0.144,2.916q-0.18,2.916-.306,4.932t-0.2,3.384q-0.072,1.37-.09,2.2c-0.012.553-.006,1.008,0.018,1.368a4.151,4.151,0,0,0,.144.9q0.108,0.36.252,0.792a6.585,6.585,0,0,0,.756,1.692,9.073,9.073,0,0,0,.756,1.008,0.363,0.363,0,0,0,.288.126,0.726,0.726,0,0,0,.432-0.108,1.2,1.2,0,0,0,.4-0.414,1.489,1.489,0,0,0,.18-0.792q0.036-1.98,0-2.862a5.117,5.117,0,0,0-.18-1.314,11.657,11.657,0,0,1-.288-1.656q-0.108-.972-0.162-2.088t-0.036-2.322q0.018-1.2.09-2.43a9.425,9.425,0,0,1,.432-2.88c0.216-.479.468-0.648,0.756-0.5a3.736,3.736,0,0,1,.846.486,1.274,1.274,0,0,1,.45.738,2.563,2.563,0,0,1-.09,1.206,9.008,9.008,0,0,1-.774,1.818c-0.216.409-.39,0.774-0.522,1.1a2.416,2.416,0,0,0-.126,1.17,5.094,5.094,0,0,0,.252,1.152,1.87,1.87,0,0,0,.7.882,4.975,4.975,0,0,0,1.512.666,20.863,20.863,0,0,0,2.682.54,1.354,1.354,0,0,0,1.152-.216,1.847,1.847,0,0,0,.4-1.152A3.025,3.025,0,0,0,721.674,573.724ZM720.36,603.37a1.521,1.521,0,0,0-.882-1.026,4.812,4.812,0,0,0-2.52-.5,12.63,12.63,0,0,0-1.962.27q-1.134.234-2.682,0.7a2.918,2.918,0,0,0-.972-1.242,3.121,3.121,0,0,0-1.512-.63,24.518,24.518,0,0,1,1.962-1.818q1.1-.918,2.358-1.926a1.2,1.2,0,0,0,.432-0.63,1.414,1.414,0,0,0,0-.774,1.927,1.927,0,0,0-.4-0.738,1.819,1.819,0,0,0-.756-0.522q-0.756-.288-1.314-0.45a4.563,4.563,0,0,0-1.134-.18,7.02,7.02,0,0,0-1.278.09q-0.7.108-1.746,0.36a6.29,6.29,0,0,1-1.53.18,8.921,8.921,0,0,1-1.458-.108,0.8,0.8,0,0,0-.756.09q-0.144.2,0.252,0.414a1.154,1.154,0,0,1,.342.342,1.8,1.8,0,0,1,.234.45,3.3,3.3,0,0,0,1.26,1.746,9.154,9.154,0,0,0,1.908,1.026q-1.116,1.3-2.07,2.232a23.563,23.563,0,0,1-2.016,1.764q-1.062.828-2.394,1.674t-3.24,1.962a0.717,0.717,0,0,0-.522.54q0.054,0.216.666,0,2.376-.9,4.752-1.872t4.428-2.052a3.453,3.453,0,0,1,1.548,1.116q-2.592.828-5.454,1.944t-5.238,2.268a5.617,5.617,0,0,1-1.728.648,0.431,0.431,0,0,1-.468-0.4q-0.072-.5-0.252-0.486a0.6,0.6,0,0,0-.324.486,2.48,2.48,0,0,0-.072,1.44,5.316,5.316,0,0,0,.936,1.692,1.706,1.706,0,0,0,1.3.648,3.746,3.746,0,0,0,2.016-.54q1.08-.54,2.286-1.116t2.484-1.206q1.278-.63,2.556-1.242t2.466-1.188q0.108,1.62.126,2.952t-0.036,2.538q-0.054,1.206-.162,2.358t-0.252,2.448a2.65,2.65,0,0,1-.432,1.17,2.2,2.2,0,0,1-.972.72,6.038,6.038,0,0,1-1.656.378,23.913,23.913,0,0,1-2.484.108,0.7,0.7,0,0,0-.666.18q-0.054.18,0.45,0.36a19.438,19.438,0,0,1,2.97,1.278,12.4,12.4,0,0,1,2.43,1.638,0.87,0.87,0,0,0,1.44-.072,12.4,12.4,0,0,0,1.134-1.764,8.906,8.906,0,0,0,.72-1.926,14.614,14.614,0,0,0,.378-2.448q0.108-1.386.108-3.366v-2.268q0-1.008-.054-1.944t-0.108-1.854q-0.054-.918-0.162-2a8.3,8.3,0,0,1,2.43-.54,8.156,8.156,0,0,1,2.646.216,3.993,3.993,0,0,0,1.476.216,1.364,1.364,0,0,0,.828-0.612A1.411,1.411,0,0,0,720.36,603.37Zm2.664,41.6a2.968,2.968,0,0,0-.288-1.224,3.622,3.622,0,0,0-.846-1.08q-0.576-.52-1.512-1.206a8.36,8.36,0,0,0-1.53-.9,6.845,6.845,0,0,0-1.548-.468,7.264,7.264,0,0,0-1.782-.072,18.937,18.937,0,0,0-2.232.324,12.774,12.774,0,0,0-3.672,1.548,13.513,13.513,0,0,0-1.6,1.17,7.441,7.441,0,0,0-1.206,1.278,8.143,8.143,0,0,1-.09-0.918,3.87,3.87,0,0,1,.054-0.846,0.4,0.4,0,0,0-.09-0.468,0.692,0.692,0,0,0-.558.324,3.847,3.847,0,0,0-.576,1.836,16.533,16.533,0,0,0,.216,3.816,13.509,13.509,0,0,1-2.52,3.276,3.4,3.4,0,0,0-1.692-2.916,16.217,16.217,0,0,1,1.8-2.412,1.431,1.431,0,0,0,.234-1.584,6.641,6.641,0,0,0-2.106-2.484q0.936-.5,1.944-1.1t1.908-1.17a0.97,0.97,0,0,0,.4-0.558,2.831,2.831,0,0,0,.144-0.936,4.448,4.448,0,0,0-.126-1.044,2.282,2.282,0,0,0-.45-0.918,4.452,4.452,0,0,0-1.476-1.17,5.539,5.539,0,0,0-2.2-.342c-0.432,0-.492.169-0.18,0.5a0.66,0.66,0,0,1,.18.7,6,6,0,0,1-.936,1.6,13.269,13.269,0,0,1-1.116,1.188,12,12,0,0,1-1.116.936,7.55,7.55,0,0,1-.99.63,1.67,1.67,0,0,1-.7.234,1.1,1.1,0,0,0-1.044.5,5.145,5.145,0,0,0-.288,2.16,4.375,4.375,0,0,0,.288,1.98,1.2,1.2,0,0,0,1.116.468,2.115,2.115,0,0,0,1.728-.864,1.182,1.182,0,0,1,.414-0.324,1.735,1.735,0,0,1,.774-0.072,0.324,0.324,0,0,1,.36.144,1.483,1.483,0,0,1-.36.72,12.946,12.946,0,0,1-1.746,2.34,4.52,4.52,0,0,1-1.242.936,2.971,2.971,0,0,0-.54.234,0.707,0.707,0,0,0-.306.342,1.762,1.762,0,0,0-.108.576,8.674,8.674,0,0,0,.018.936q0.072,2.052.63,2.34t1.566-.72q1.584-1.547,2.142-1.4t0.162,1.3a14.63,14.63,0,0,1-.936,2.2,2.72,2.72,0,0,1-.864,1.116,1.031,1.031,0,0,0-.54.738,5.609,5.609,0,0,0-.036,1.746,5.381,5.381,0,0,0,.36,1.8,5.8,5.8,0,0,0,.9,1.368,0.936,0.936,0,0,0,.45.36,0.518,0.518,0,0,0,.5-0.18,2.923,2.923,0,0,0,.558-0.846,12.177,12.177,0,0,0,.612-1.638,15.214,15.214,0,0,1,.756-2.034q0.5-1.134,1.134-2.34t1.386-2.412q0.756-1.2,1.512-2.25,0.144,1.442.306,2.484a18.2,18.2,0,0,0,.36,1.8,9.08,9.08,0,0,0,.414,1.26,5.167,5.167,0,0,0,.432.828,1.931,1.931,0,0,0,1.3.72,2.235,2.235,0,0,0,1.692-.432,6.077,6.077,0,0,1,1.116-.558q0.684-.27,1.422-0.486a10.836,10.836,0,0,1,1.476-.324,6.223,6.223,0,0,1,1.278-.072,21.93,21.93,0,0,0,.594,2.178,4.42,4.42,0,0,0,.522,1.116,0.755,0.755,0,0,0,.54.36,1.477,1.477,0,0,0,.684-0.162,3.525,3.525,0,0,0,1.386-.882,5.937,5.937,0,0,0,1.17-1.944,23.222,23.222,0,0,0,1.044-3.492q0.5-2.177,1.044-5.526A9.694,9.694,0,0,0,723.024,644.965Zm-3.528,2.682q-0.162,1.08-.4,2.2t-0.5,2.142q-0.27,1.026-.522,1.818a4.632,4.632,0,0,0-1.44-1.314,5.269,5.269,0,0,0-1.62-.522,9.928,9.928,0,0,0,.27-1.188q0.126-.719.2-1.3a6.607,6.607,0,0,0,1.422-.5,3.027,3.027,0,0,0,.828-0.576,1.038,1.038,0,0,0,.306-0.54,0.442,0.442,0,0,0-.108-0.4,7.084,7.084,0,0,0-1.116-.99,3.365,3.365,0,0,0-.864-0.45,7.06,7.06,0,0,0-.342-1.8,4.533,4.533,0,0,0-.954-1.692,1.449,1.449,0,0,1,.81-0.468,7.7,7.7,0,0,1,1.746-.144,1.644,1.644,0,0,1,.828.288,3.118,3.118,0,0,1,.846.792,4.292,4.292,0,0,1,.612,1.188,3.972,3.972,0,0,1,.2,1.476A18.369,18.369,0,0,1,719.5,647.647Zm-6.822-.792q-0.828.216-1.962,0.468a16.032,16.032,0,0,0-1.926.54,0.78,0.78,0,0,0-.45.54,0.684,0.684,0,0,0,.234.612,3.933,3.933,0,0,0,.918.81,2.806,2.806,0,0,0,.9.36,4.331,4.331,0,0,0,.864.09h0.81a12.8,12.8,0,0,1-.54,1.314,4.976,4.976,0,0,1-.864,1.314,8.507,8.507,0,0,1-1.026.2q-0.63.092-.954,0.162-0.18-2.411-.432-4.446a33.078,33.078,0,0,0-.612-3.546,4.172,4.172,0,0,1,1.746-.792,19.665,19.665,0,0,1,3.33-.54,6.876,6.876,0,0,1-.036,2.916h0Z" transform="translate(-694.156 -317.875)"/>
</svg>
