<svg xmlns="http://www.w3.org/2000/svg" width="120.29" height="23.781" viewBox="0 0 120.29 23.781">
  <metadata><?xpacket begin="﻿" id="W5M0MpCehiHzreSzNTczkc9d"?>
<x:xmpmeta xmlns:x="adobe:ns:meta/" x:xmptk="Adobe XMP Core 5.6-c138 79.159824, 2016/09/14-01:09:01        ">
   <rdf:RDF xmlns:rdf="http://www.w3.org/1999/02/22-rdf-syntax-ns#">
      <rdf:Description rdf:about=""/>
   </rdf:RDF>
</x:xmpmeta>
                                                                                                    
                                                                                                    
                                                                                                    
                                                                                                    
                                                                                                    
                                                                                                    
                                                                                                    
                                                                                                    
                                                                                                    
                                                                                                    
                                                                                                    
                                                                                                    
                                                                                                    
                                                                                                    
                                                                                                    
                                                                                                    
                                                                                                    
                                                                                                    
                                                                                                    
                                                                                                    
                           
<?xpacket end="w"?></metadata>
<defs>
    <style>
      .cls-1 {
        fill: #222;
        fill-rule: evenodd;
      }
    </style>
  </defs>
  <path id="凡事有结果_拷贝" data-name="凡事有结果 拷贝" class="cls-1" d="M1253.38,683.6c-0.86-.85-1.85-1.76-2.98-2.73a3.2,3.2,0,0,0-.52-0.377c-0.12-.061-0.19-0.065-0.21-0.013a0.416,0.416,0,0,0,.11.286,2.669,2.669,0,0,0,.41.494c0.42,0.416.79,0.8,1.13,1.144s0.66,0.684.96,1.014,0.6,0.667.89,1.014,0.57,0.719.87,1.118a2.3,2.3,0,0,1,.6,1.378q-0.075.415-1.17,0.416a14.579,14.579,0,0,1-1.6-.1,16.332,16.332,0,0,1-1.83-.312,6.871,6.871,0,0,1-1.6-.507,2.561,2.561,0,0,1-.95-0.741,2.232,2.232,0,0,1-.44-1.079,7.436,7.436,0,0,1-.06-1.547q0.03-.729.09-1.547,0.075-.819.21-1.833,0.15-1.014.39-2.3c0.17-.858.38-1.842,0.64-2.951q0.24-1.092.45-1.742a7.562,7.562,0,0,1,.51-1.17,1.034,1.034,0,0,0,.16-0.858,2.119,2.119,0,0,0-.7-0.858,1.706,1.706,0,0,0-1.25-.507,2.338,2.338,0,0,0-1.25.689c-0.43.4-.85,0.784-1.24,1.157s-0.76.749-1.13,1.131l-1.08,1.144c-0.35.381-.72,0.788-1.1,1.222,0.07-.226.15-0.442,0.23-0.65a1.353,1.353,0,0,0-.02-1.248,2.324,2.324,0,0,0-1.33-.806,0.819,0.819,0,0,0-.77-0.078c-0.06.1,0.03,0.225,0.25,0.364a2.054,2.054,0,0,1,.87.858,1.919,1.919,0,0,1-.09,1.222,13.636,13.636,0,0,0-.49,2.015,11.471,11.471,0,0,0-.13,1.807,1.375,1.375,0,0,0-.31-0.065c-0.11-.009-0.22-0.022-0.34-0.039q-0.57-.078-0.63.117c-0.03.13,0.14,0.273,0.52,0.429q0.21,0.078.39,0.156a3.2,3.2,0,0,0,.37.13,21.866,21.866,0,0,1-.43,4.368,11.2,11.2,0,0,1-1,2.938,1.571,1.571,0,0,1-.72.871,0.892,0.892,0,0,1-.24-0.793,16.663,16.663,0,0,1,.14-2.886,12.068,12.068,0,0,1,.79-2.964,2.813,2.813,0,0,0,.29-0.988,2.565,2.565,0,0,0-.44.832,16.465,16.465,0,0,0-1.28,3.757,12.054,12.054,0,0,0-.13,3.757,0.78,0.78,0,0,0,.47.728,0.881,0.881,0,0,0,.88-0.416,8.636,8.636,0,0,0,1.54-2.548,11.889,11.889,0,0,0,.8-3.614q0.06-.754.09-1.43c0.03-.451.06-0.876,0.1-1.274,0.43,0.156.83,0.294,1.19,0.416s0.8,0.268,1.3.442a3.732,3.732,0,0,0,1.04.247,0.368,0.368,0,0,0,.29-0.429,0.469,0.469,0,0,0-.24-0.455,3.6,3.6,0,0,0-.78-0.351q-0.75-.287-1.41-0.468c-0.45-.122-0.89-0.226-1.34-0.312,0.01-.382.04-0.746,0.08-1.092q0.045-.417.09-0.754,0.03-.339.09-0.7a5.129,5.129,0,0,0,.62-0.546c0.75-.746,1.47-1.456,2.17-2.132s1.45-1.326,2.23-1.95a2.072,2.072,0,0,1,.72-0.4,1.054,1.054,0,0,1,.59-0.013,0.562,0.562,0,0,1,.35.3,0.79,0.79,0,0,1,.03.533c-0.21.8-.4,1.529-0.56,2.2s-0.32,1.317-.45,1.95-0.25,1.274-.36,1.924-0.22,1.365-.32,2.145a33.1,33.1,0,0,0-.34,3.484,6.736,6.736,0,0,0,.22,2.249,2.578,2.578,0,0,0,.91,1.352,5.238,5.238,0,0,0,1.7.793,15.263,15.263,0,0,0,2.45.507,20.31,20.31,0,0,0,2.73.117,3.094,3.094,0,0,0,1.23-.2,1.059,1.059,0,0,0,.57-0.494,0.963,0.963,0,0,0,.08-0.624,1.74,1.74,0,0,0-.25-0.611A22.328,22.328,0,0,0,1253.38,683.6Zm24.25-14.2a1.533,1.533,0,0,0-.54-0.169,2.2,2.2,0,0,0-.7.039,9.961,9.961,0,0,0-1.06.286c-0.33.1-.8,0.26-1.43,0.468s-1.3.433-2.02,0.676c0-.243,0-0.473.01-0.689s0.02-.429.04-0.637q0.015-.677,0-1.105a2.75,2.75,0,0,0-.12-0.689,0.823,0.823,0,0,0-.26-0.39,1.326,1.326,0,0,0-.43-0.208,3.154,3.154,0,0,0-.95-0.2,2.947,2.947,0,0,0-.76.065,1.707,1.707,0,0,0-.71.247q-0.1.117,0.42,0.169a2.952,2.952,0,0,1,1.46.442,1.24,1.24,0,0,1,.33,1.04v1.053c0,0.372-.01.775-0.02,1.209q-0.855.285-1.71,0.559l-1.56.507q-0.7.234-1.23,0.4c-0.35.112-.58,0.2-0.7,0.247-0.71.225-1.3,0.4-1.76,0.533a10.806,10.806,0,0,1-1.17.273,3.115,3.115,0,0,1-.83.039,4.32,4.32,0,0,1-.77-0.169,0.748,0.748,0,0,0-.53-0.052,1.008,1.008,0,0,0,.38.65,1.415,1.415,0,0,0,1.31.494,12.051,12.051,0,0,0,2.51-.65c0.31-.1.7-0.234,1.16-0.39s0.95-.325,1.48-0.507l1.66-.572c0.58-.2,1.16-0.395,1.73-0.585,0,0.26,0,.533-0.01.819s-0.01.576-.01,0.871q-1.1.519-2.01,0.91-0.9.39-1.35,0.546a3.118,3.118,0,0,0-.65.312,1.764,1.764,0,0,0-.65.728,0.845,0.845,0,0,0-.1.455,0.2,0.2,0,0,0,.17.182,0.788,0.788,0,0,0,.37-0.013c0.16-.035.33-0.078,0.52-0.13q0.45-.156,1.5-0.468c0.7-.208,1.42-0.416,2.14-0.624-0.01.19-.02,0.372-0.02,0.546a5.251,5.251,0,0,1-.03.546c-0.36.208-.76,0.424-1.19,0.65s-0.96.494-1.56,0.806c-0.11.069-.2,0.121-0.26,0.156a0.532,0.532,0,0,0-.16.1c-0.28.052-.59,0.117-0.95,0.195s-0.65.143-.9,0.2a1.21,1.21,0,0,0-.48.169,0.875,0.875,0,0,0-.27.481q-0.15.6,0.09,0.611a1.986,1.986,0,0,0,.85-0.325,2.558,2.558,0,0,1,.42-0.195q0.3-.117.63-0.221c0.21-.07.42-0.13,0.61-0.182s0.33-.087.42-0.1l1.41-.39q0.66-.183,1.29-0.312c0,0.208-.01.416-0.01,0.624s-0.02.424-.02,0.65l-0.31.052a3.1,3.1,0,0,0-.34.078,9.747,9.747,0,0,0-1.53.572,6.4,6.4,0,0,0-1.56,1.066,1.558,1.558,0,0,0-.42.507,0.681,0.681,0,0,0-.04.52,0.932,0.932,0,0,0,.43.442,3.116,3.116,0,0,0,1.02.3,3.217,3.217,0,0,0,.67.026c0.16-.018.18-0.061,0.06-0.13-0.44-.208-0.76-0.377-0.98-0.507a0.846,0.846,0,0,1-.38-0.351,0.354,0.354,0,0,1,.17-0.351,7.491,7.491,0,0,1,.69-0.507,5.831,5.831,0,0,1,1.11-.559,8.434,8.434,0,0,1,1.39-.377q-0.03.39-.03,0.793c0,0.268-.01.541-0.02,0.819-0.32.277-.69,0.606-1.14,0.988s-0.81.7-1.13,0.962a1.844,1.844,0,0,1-.89.455,5.884,5.884,0,0,1-1.08.091,1.119,1.119,0,0,0-.74.13,0.529,0.529,0,0,0,.27.494,1.239,1.239,0,0,0,.6.3,2.453,2.453,0,0,0,1.06-.065,12.515,12.515,0,0,1,1.28-.26c0.53-.087,1.11-0.182,1.71-0.286q0,0.624.03,1.287c0.02,0.442.03,0.849,0.05,1.222s0.04,0.7.05,0.975a4.528,4.528,0,0,0,.06.546,0.392,0.392,0,0,1-.15.442,0.574,0.574,0,0,1-.5-0.026c-0.21-.07-0.47-0.165-0.77-0.286s-0.6-.243-0.89-0.364-0.53-.226-0.75-0.312a3.156,3.156,0,0,0-.35-0.13,1.355,1.355,0,0,0-.9-0.169,0.736,0.736,0,0,0,.56.377c0.11,0.052.31,0.169,0.63,0.351s0.64,0.377.98,0.585,0.68,0.416.99,0.624a7.714,7.714,0,0,1,.65.468,1.135,1.135,0,0,0,.69.39,0.712,0.712,0,0,0,.43-0.494,2.69,2.69,0,0,0,.26-0.9,3.072,3.072,0,0,0-.03-1.053,11.51,11.51,0,0,1-.15-1.56q-0.06-1.014-.03-2.106c0.47-.07.92-0.139,1.37-0.208s0.84-.13,1.21-0.182,0.68-.091.94-0.117,0.46-.039.56-0.039c0.49-.018.73-0.083,0.73-0.195a0.543,0.543,0,0,0-.31-0.377,0.155,0.155,0,0,0-.08-0.052q0.255-.6.63-1.287a13.47,13.47,0,0,0,.78-1.989c0.06-.208.13-0.412,0.2-0.611a2.9,2.9,0,0,1,.29-0.585,0.858,0.858,0,0,0,.12-0.728,1.38,1.38,0,0,0-.72-0.65,5.106,5.106,0,0,0-3.46-.6c-0.38.052-.73,0.1-1.06,0.156s-0.66.112-.99,0.182a1.586,1.586,0,0,0,.03-0.3V676.6c0.27-.139.54-0.273,0.79-0.4a7.858,7.858,0,0,0,.69-0.4,2.468,2.468,0,0,0,.8-0.676,0.708,0.708,0,0,0,.03-0.832c-0.14-.312-0.7-0.321-1.69-0.026l-0.55.156a2.171,2.171,0,0,0,.03-0.351,1.715,1.715,0,0,1,.03-0.325c1.3-.607,2.32-1.105,3.08-1.5s1.25-.646,1.49-0.767c0.37-.191.7-0.351,1.02-0.481s0.59-.239.85-0.325a0.486,0.486,0,0,0,.45-0.4,0.71,0.71,0,0,0-.45-0.533A4.762,4.762,0,0,0,1277.63,669.4Zm-5.99,10.582a0.7,0.7,0,0,1,.7.091,2.252,2.252,0,0,1-.88.949,3.891,3.891,0,0,0,.03-0.494v-0.52a0.27,0.27,0,0,0,.15-0.026h0Zm-1.09,3.094a2.093,2.093,0,0,1-.03.338v0.442c-0.26.034-.53,0.078-0.82,0.13s-0.59.1-.92,0.156a10.012,10.012,0,0,0,.82-0.6c0.3-.243.62-0.5,0.95-0.78v0.312Zm5.56-5.434a1.043,1.043,0,0,1,.47,1.274c-0.07.294-.15,0.585-0.23,0.871s-0.19.585-.3,0.9-0.25.65-.4,1.014-0.35.78-.58,1.248c-0.01.034-.03,0.065-0.04,0.091a0.456,0.456,0,0,1-.03.091,2.629,2.629,0,0,0-.6.078c-0.4.086-.85,0.169-1.34,0.247s-1.05.169-1.68,0.273v-0.182q0.03-.365.03-0.754c0-.26.01-0.52,0.02-0.78,0.26-.243.51-0.468,0.73-0.676s0.43-.39.6-0.546a0.982,0.982,0,0,0,.39-0.624,1.109,1.109,0,0,0-.13-0.52,0.737,0.737,0,0,0-.44-0.26,3.11,3.11,0,0,0-1.07-.1c0.02-.226.03-0.447,0.04-0.663s0.01-.447.01-0.689c0.38-.087.76-0.161,1.12-0.221s0.74-.126,1.12-0.195A3.746,3.746,0,0,1,1276.11,677.644Zm-6.25-.091c-0.29.078-.59,0.16-0.92,0.247q0.4-.183.87-0.377c0.3-.13.61-0.265,0.92-0.4a1.312,1.312,0,0,0-.02.338C1270.43,677.41,1270.15,677.475,1269.86,677.553Zm3.21-2.665a0.905,0.905,0,0,1-.57.546c-0.16.086-.3,0.173-0.44,0.26l-0.42.26a2.921,2.921,0,0,0,.03-0.416v-0.416a1.513,1.513,0,0,1,.24-0.078c0.08-.018.16-0.035,0.25-0.052A1.282,1.282,0,0,1,1273.07,674.888Zm-3.68.195c-0.53.164-1.24,0.394-2.14,0.689,0.66-.3,1.28-0.572,1.88-0.832s1.16-.512,1.68-0.754v0.234a1.056,1.056,0,0,1-.03.234C1270.38,674.775,1269.92,674.918,1269.39,675.083Zm4.92-3.315c-0.81.416-1.65,0.832-2.54,1.248,0-.26.01-0.52,0.01-0.78s0.03-.52.04-0.78c0.7-.243,1.33-0.464,1.91-0.663s1.07-.369,1.45-0.507a3.986,3.986,0,0,1,2.06-.442q0.33,0.181-1.05.936C1275.74,671.022,1275.11,671.352,1274.31,671.768Zm28.96-1.937a0.824,0.824,0,0,0-.56.013q-0.315.1-.75,0.221c-0.3.078-.58,0.16-0.86,0.247-0.09.017-.36,0.091-0.82,0.221s-1.04.281-1.73,0.455a1.861,1.861,0,0,0-.34-1.066,7.424,7.424,0,0,0-1.01-1.092,9.808,9.808,0,0,0-1.51-1.144,0.978,0.978,0,0,0-.53-0.286,0.933,0.933,0,0,0,.35.546,9.471,9.471,0,0,0,.92,1.131,5.729,5.729,0,0,1,.74.9,2.3,2.3,0,0,1,.5,1.248c-0.87.242-1.79,0.494-2.77,0.754s-1.91.5-2.8,0.728-1.66.429-2.32,0.611-1.11.307-1.32,0.377a8.76,8.76,0,0,0-1.31.442,1.394,1.394,0,0,0-.53.39,5.753,5.753,0,0,0-.5.689,8.162,8.162,0,0,0-.44.845,2.856,2.856,0,0,0-.17,1.56,4.553,4.553,0,0,0,.61,1.768,3.207,3.207,0,0,0,1.03,1.092,3.537,3.537,0,0,0,1.31.507,4.1,4.1,0,0,0,2.79-.533,12.506,12.506,0,0,0,3.06-2.47,37.012,37.012,0,0,0,3.49-4.342,6.606,6.606,0,0,0,.48-0.949,3.818,3.818,0,0,0,.25-1c0.71-.156,1.4-0.33,2.08-0.52,0.98-.226,1.53-0.343,1.63-0.351s-0.07.117-.54,0.377c-0.59.364-1,.624-1.22,0.78s-0.41.277-.55,0.364c-0.14.069-.19,0.121-0.14,0.156a0.961,0.961,0,0,0,.53-0.208,11.843,11.843,0,0,1,1.98-.858,13.906,13.906,0,0,1,1.48-.416,0.706,0.706,0,0,0,.58-0.273,0.722,0.722,0,0,0-.4-0.507A2.7,2.7,0,0,0,1303.27,669.831Zm-7.62,5.291a23.274,23.274,0,0,1-1.62,1.95c-0.56.589-1.09,1.122-1.6,1.6a6.618,6.618,0,0,1-4.16,1.807,2.648,2.648,0,0,1-2.02-1.3,3.93,3.93,0,0,1-.56-1.378,3.916,3.916,0,0,1-.05-0.754,1.665,1.665,0,0,1,.15-0.65,9.071,9.071,0,0,1,.55-0.884,2.383,2.383,0,0,1,.5-0.52,1.562,1.562,0,0,1,.44-0.247,1.224,1.224,0,0,1,.4-0.065,8.518,8.518,0,0,0,1.36-.221,14.11,14.11,0,0,0,1.56-.507q0.435-.183,1.17-0.416c0.48-.156,1.03-0.317,1.63-0.481s1.28-.343,2.01-0.533,1.46-.382,2.21-0.572a8.661,8.661,0,0,1-.52,1.092C1296.66,673.718,1296.18,674.411,1295.65,675.122Zm6.29,0.858a2.082,2.082,0,0,0-1.31-1.04,3.642,3.642,0,0,0-.74-0.169,1.858,1.858,0,0,0-.66.039,2.6,2.6,0,0,0-.67.286c-0.23.138-.49,0.3-0.76,0.494a4.88,4.88,0,0,0-.76.585,6.743,6.743,0,0,0-.54.585,0.313,0.313,0,0,0-.3-0.286,0.891,0.891,0,0,0-.56.364,1.553,1.553,0,0,0-.33.767c-0.07.372-.15,0.81-0.22,1.313q-0.075.78-.18,1.651c-0.07.58-.13,1.126-0.19,1.638s-0.13.966-.2,1.365a3.374,3.374,0,0,1-.21.806,1.925,1.925,0,0,0-.07.429,5.494,5.494,0,0,0-.03.6c0,0.216.01,0.429,0.03,0.637a3.807,3.807,0,0,0,.07.546q0.165,0.6.33,1.118a4.517,4.517,0,0,0,.38.884,0.549,0.549,0,0,0,.36.351c0.12,0.008.16-.152,0.13-0.481-0.02-.174-0.05-0.412-0.1-0.715a9.09,9.09,0,0,1-.13-0.988c-0.04-.356-0.07-0.715-0.08-1.079a6.839,6.839,0,0,1,0-.91c0.01-.208.04-0.481,0.08-0.819s0.08-.715.14-1.131,0.12-.845.17-1.287,0.1-.88.15-1.313a1.224,1.224,0,0,0,.84-0.468,3.686,3.686,0,0,1,.74-0.494,3.142,3.142,0,0,1,.71-0.286,0.811,0.811,0,0,1,.89.091,0.764,0.764,0,0,1-.19.819q-0.435.6-.69,1c-0.16.268-.29,0.5-0.4,0.7a1.707,1.707,0,0,0-.18.52,1.679,1.679,0,0,0,.03.533,0.443,0.443,0,0,0,.33.39,1.747,1.747,0,0,0,.91-0.26,0.416,0.416,0,0,1,.54.065,1.12,1.12,0,0,1-.17.949,1.794,1.794,0,0,1-.48.624q-0.285.207-.69,0.546c-0.19.138-.26,0.251-0.2,0.338s0.21,0.069.46-.052a3.806,3.806,0,0,0,1.43-1.027,1.5,1.5,0,0,0,.44-1.027,1.341,1.341,0,0,0-.52-1,1.294,1.294,0,0,0-1.09.039c-0.25.086-.36,0.069-0.35-0.052a2.054,2.054,0,0,1,.4-0.754c0.16-.208.35-0.5,0.58-0.871a10.044,10.044,0,0,0,.59-1.053,0.909,0.909,0,0,0-.21-1.105,1.292,1.292,0,0,0-1.27-.117,4.682,4.682,0,0,0-2.34,1.222,6.173,6.173,0,0,1,.14-0.845c0.06-.252.13-0.481,0.2-0.689a1.474,1.474,0,0,0,.44-0.26,6,6,0,0,0,.57-0.546,7.406,7.406,0,0,1,1.46-1.235,2.326,2.326,0,0,1,.96-0.377,1.655,1.655,0,0,1,1.08.312,1.256,1.256,0,0,1,.5.962c0.18,2.842.28,5.191,0.32,7.046a18.273,18.273,0,0,1-.16,3.64c-0.1.4-.2,0.7-0.27,0.9a0.485,0.485,0,0,1-.3.338,0.572,0.572,0,0,1-.43-0.13,8.134,8.134,0,0,1-.66-0.507,14.864,14.864,0,0,1-3.41-4.16,0.547,0.547,0,0,0-.35-0.351q-0.15.012,0.06,0.507a10.742,10.742,0,0,0,1.52,2.587,33.768,33.768,0,0,0,2.51,2.9,0.993,0.993,0,0,0,.98.429,1.708,1.708,0,0,0,.82-0.793,3.214,3.214,0,0,0,.3-0.741c0.07-.286.14-0.572,0.19-0.858a8.471,8.471,0,0,0,.11-0.845c0.01-.278.02-0.529,0.02-0.754-0.03-.85-0.07-1.712-0.1-2.587s-0.07-1.7-.11-2.47-0.05-1.456-.06-2.054-0.01-1.036.01-1.313A3.4,3.4,0,0,0,1301.94,675.98ZM1329.65,674a7.76,7.76,0,0,1,1.45-.13,1.144,1.144,0,0,0,.89-0.117,0.823,0.823,0,0,0-.44-0.611,1.677,1.677,0,0,0-.98-0.312,2.978,2.978,0,0,0-1.13.156c-0.24.086-.54,0.177-0.88,0.273s-0.73.195-1.15,0.3c0.02-.468.03-0.889,0.04-1.261s0.02-.763.03-1.17,0.01-.767.02-1.079,0.02-.546.02-0.7a1.7,1.7,0,0,0-.34-1.183,2.261,2.261,0,0,0-1.3-.481,1.919,1.919,0,0,0-1.29.065c-0.08.13,0.08,0.229,0.48,0.3a3.575,3.575,0,0,1,.87.247,0.966,0.966,0,0,1,.43.364,1.389,1.389,0,0,1,.17.533c0.03,0.208.05,0.459,0.07,0.754v0.6q0,0.415-.03.832c-0.02.277-.03,0.637-0.04,1.079s-0.02.879-.04,1.313c-0.54.138-1.1,0.273-1.69,0.4s-1.2.273-1.84,0.429c-0.46.086-.83,0.156-1.14,0.208a1.859,1.859,0,0,1-1.02-.156c-0.14-.052-0.22-0.031-0.24.065a0.356,0.356,0,0,0,.19.3,3.1,3.1,0,0,0,.61.429,1.959,1.959,0,0,0,.52.2,1.438,1.438,0,0,0,.54,0,6.845,6.845,0,0,0,.74-0.182c0.47-.139.99-0.282,1.55-0.429s1.14-.291,1.73-0.429c-0.02.554-.04,1.04-0.07,1.456s-0.04.684-.06,0.806c-0.1.5-.18,0.9-0.23,1.183a2.5,2.5,0,0,0-.06.663c-0.34.1-.67,0.208-0.97,0.312s-0.56.182-.77,0.234a7.1,7.1,0,0,1-1.34.312,14.439,14.439,0,0,1-1.49.13,1.12,1.12,0,0,0-.72.117c-0.04.078,0.1,0.16,0.43,0.247a9.657,9.657,0,0,0,1.3.234,4.754,4.754,0,0,0,1.05-.013,5.894,5.894,0,0,0,1.07-.247c0.37-.122.81-0.286,1.31-0.494,0.51-.191,1.02-0.373,1.54-0.546s1.1-.347,1.74-0.52a1.07,1.07,0,0,1,.38-0.065c0.07,0.008.07,0.056-.02,0.143a3.278,3.278,0,0,1-.53.39c-0.27.173-.66,0.407-1.18,0.7q-0.315.156-.18,0.208a1.025,1.025,0,0,0,.57-0.13c0.4-.156.74-0.282,1.04-0.377s0.54-.169.75-0.221a3.02,3.02,0,0,1,.56-0.091c0.16-.009.32-0.013,0.46-0.013,0.34,0.034.52-.039,0.52-0.221a1.28,1.28,0,0,0-.63-0.741,2.04,2.04,0,0,0-1.1-.429,2.516,2.516,0,0,0-1.11.169q-0.21.078-.69,0.247l-1.08.377a6.5,6.5,0,0,0,.16-0.663c0.05-.252.09-0.551,0.13-0.9a8.248,8.248,0,0,0,.08-0.923c0.01-.442.04-0.949,0.08-1.521C1328.22,674.246,1328.97,674.108,1329.65,674Zm-3.29,8.372q-0.51.181-.99,0.377c-0.32.13-.68,0.273-1.09,0.429l-1.57.6a3.809,3.809,0,0,1-.06-0.871c0.02-.269.05-0.585,0.08-0.949,0.04-.468-0.04-0.694-0.23-0.676a1,1,0,0,0-.42.936,8.748,8.748,0,0,0-.01,1.638,16.464,16.464,0,0,0,.26,2.028,15.772,15.772,0,0,0,.49,1.963,5,5,0,0,0,.69,1.443,0.926,0.926,0,0,0,.61.559,1.429,1.429,0,0,0-.04-0.793c-0.01-.07-0.03-0.139-0.04-0.208a0.776,0.776,0,0,0-.06-0.234h0.05c1.51-.312,2.68-0.551,3.52-0.715a9.03,9.03,0,0,1,1.94-.221,1.037,1.037,0,0,0,.68-0.1c0.08-.087.04-0.243-0.13-0.468a0.39,0.39,0,0,0-.24-0.143,2.023,2.023,0,0,0-.46-0.039c0.32-.659.58-1.162,0.75-1.508s0.34-.659.49-0.936a1.906,1.906,0,0,0,.3-1.248,1.57,1.57,0,0,0-.48-0.936,2.235,2.235,0,0,0-1.31-.637,3.829,3.829,0,0,0-1.47.247Q1326.87,682.193,1326.36,682.376Zm2.81,3.094c-0.2.468-.45,0.979-0.74,1.534h-0.13c-0.3.017-.59,0.047-0.88,0.091s-0.59.1-.93,0.169-0.73.156-1.16,0.26-0.94.216-1.53,0.338c-0.25-.954-0.55-2.063-0.91-3.328,0.57-.226,1.05-0.421,1.45-0.585s0.79-.317,1.17-0.455,0.77-.278,1.17-0.416,0.89-.295,1.46-0.468a1.366,1.366,0,0,1,1.44.1,1.2,1.2,0,0,1,.12,1.2A12.679,12.679,0,0,1,1329.17,685.47Zm-10.1-6.058c-0.35.745-.72,1.516-1.12,2.314a2.275,2.275,0,0,0-.33-1.313,3.265,3.265,0,0,0-1.02-1c0.34-.451.68-0.9,1.01-1.352s0.57-.78.73-0.988a1.154,1.154,0,0,0,.23-0.546,0.935,0.935,0,0,0-.13-0.637,2.177,2.177,0,0,0-.62-0.65,6.013,6.013,0,0,0-1.2-.637c0.5-.607.92-1.079,1.24-1.417a11.7,11.7,0,0,1,.97-0.923,4.675,4.675,0,0,0,.99-1.092,0.63,0.63,0,0,0,0-.65,3.306,3.306,0,0,0-.56-0.7c-0.23-.226-0.48-0.451-0.74-0.676-0.24-.208-0.4-0.278-0.48-0.208s-0.05.2,0.09,0.39a2.983,2.983,0,0,1,.55,1.2,1.181,1.181,0,0,1-.34.91c-0.56.624-1.02,1.135-1.39,1.534s-0.7.723-.97,0.975a5.237,5.237,0,0,1-.67.559q-0.27.181-.48,0.312a3.832,3.832,0,0,0-.93.689,0.951,0.951,0,0,0-.19.611c0,0.26.06,0.4,0.19,0.416a1.5,1.5,0,0,0,.77-0.442,3.4,3.4,0,0,1,1.35-.767,1.67,1.67,0,0,1,1.23.429,0.771,0.771,0,0,1,.33.767,3.729,3.729,0,0,1-.88,1.521,11.592,11.592,0,0,1-1.51,1.638,4.633,4.633,0,0,1-.99.7,1.157,1.157,0,0,0-.43.312,1.136,1.136,0,0,0-.16.624c-0.04.416,0.04,0.606,0.24,0.572a2.5,2.5,0,0,0,.98-0.754q0.21-.234.45-0.468c0.17-.156.37-0.338,0.61-0.546q0.21-.183.6,0.156a2.184,2.184,0,0,1,.6,1.092,4.273,4.273,0,0,1,.12,1.924,4.606,4.606,0,0,1-.93,1.872,2.25,2.25,0,0,0-.24.468,5.8,5.8,0,0,0-.21.585,3.184,3.184,0,0,0-.13.6,1.928,1.928,0,0,0-.01.533,1.144,1.144,0,0,0,.28.858,0.916,0.916,0,0,0,.5-0.7c0.17-.416.4-0.971,0.68-1.664s0.62-1.495.98-2.4,0.75-1.9,1.17-2.977,0.84-2.21,1.27-3.406q0.21-.573.03-0.624a1.138,1.138,0,0,0-.57.78Q1319.58,678.294,1319.07,679.412Zm36.95,0.091a3.853,3.853,0,0,0-1.36-.143,3.425,3.425,0,0,1-.73-0.026,3,3,0,0,1-.74-0.234,7.286,7.286,0,0,1-.94-0.533c-0.35-.234-0.79-0.542-1.31-0.923a0.433,0.433,0,0,0-.22-0.091,0.2,0.2,0,0,0-.17.039,0.121,0.121,0,0,0-.01.143,0.493,0.493,0,0,0,.25.195,2.854,2.854,0,0,1,1.26,1.066c0.06,0.242-.16.4-0.67,0.468l-0.88.156c-0.3.052-.59,0.1-0.88,0.156V679.2q-0.03-.442-0.03-0.923v-0.975c0.12-.018.24-0.031,0.35-0.039a1.542,1.542,0,0,0,.33-0.065,4.676,4.676,0,0,0,1.59-.455,5.033,5.033,0,0,0,1.34-1.027,10.638,10.638,0,0,0,.94-1.157,5.493,5.493,0,0,0,.75-1.443c0.16-.5.29-0.9,0.41-1.183s0.22-.568.32-0.845a2,2,0,0,0-.91-2.5,3.806,3.806,0,0,0-1.91-.715,8.673,8.673,0,0,0-2.35.091,13.831,13.831,0,0,0-3.76,1.105,8.28,8.28,0,0,0-2.53,1.729c-0.68.693-.51,0.728,0.52,0.1a13.258,13.258,0,0,1,1.85-.962,15.766,15.766,0,0,1,1.95-.689,18.157,18.157,0,0,1,1.93-.429,13.436,13.436,0,0,1,1.78-.182,2.665,2.665,0,0,1,1.98.611,1.709,1.709,0,0,1,.36,1.755,7.473,7.473,0,0,1-.25.806q-0.165.468-.39,0.975c-0.15.338-.31,0.676-0.49,1.014a7.482,7.482,0,0,1-.56.9,4.462,4.462,0,0,1-1.09.949,3.83,3.83,0,0,1-1.15.507c-0.19.034-.37,0.065-0.53,0.091s-0.32.056-.48,0.091c0-.52,0-1.04.01-1.56s0.02-1.006.04-1.456c0.35-.122.69-0.226,1.03-0.312a3.6,3.6,0,0,1,.87-0.13,0.9,0.9,0,0,0,.69-0.169,0.314,0.314,0,0,0-.01-0.455,0.946,0.946,0,0,0-.76-0.312,2.373,2.373,0,0,0-.93.182c-0.32.1-.6,0.208-0.86,0.312,0-.156,0-0.308.01-0.455s0.01-.291.01-0.429a1.346,1.346,0,0,0-.33-1.144,1.555,1.555,0,0,0-1.1-.364,2.581,2.581,0,0,0-.72.078,0.556,0.556,0,0,0-.33.182,0.139,0.139,0,0,0,.01.182,0.374,0.374,0,0,0,.26.078,1.716,1.716,0,0,1,.6.13,0.772,0.772,0,0,1,.37.338,2.145,2.145,0,0,1,.18.663,10.77,10.77,0,0,1,.05,1.105c-0.66.225-1.27,0.4-1.82,0.533s-1.07.229-1.53,0.3q-0.975.1,0.18,0.546a2.2,2.2,0,0,0,1.04.026,14.39,14.39,0,0,0,2.13-.572c0,0.5-.01,1-0.01,1.482s-0.02.962-.02,1.43q-0.72.156-1.32,0.325c-0.4.112-.77,0.229-1.09,0.351a1.147,1.147,0,0,1-.94.013,1.5,1.5,0,0,1-.57-1.105,21.67,21.67,0,0,0-.82-3.2,10.251,10.251,0,0,0-1.21-2.522c-0.24-.347-0.43-0.455-0.55-0.325a0.884,0.884,0,0,0,.16.871,7.546,7.546,0,0,1,.42,1.053q0.18,0.585.39,1.547a17.773,17.773,0,0,0,.61,2.6,11.645,11.645,0,0,0,.61,1.534,1.5,1.5,0,0,0,.76.819,1.544,1.544,0,0,0,1.19-.195,5.228,5.228,0,0,1,1-.416c0.42-.139.88-0.269,1.36-0.39v2.47q-2.28.468-4.47,1.118c-1.45.433-2.95,0.927-4.47,1.482a0.671,0.671,0,0,1-.7.026,0.947,0.947,0,0,1,.18-0.962q0.21-.443,0-0.442a1.233,1.233,0,0,0-.62.676,1.339,1.339,0,0,0-.19.806,0.857,0.857,0,0,0,.32.7,1.118,1.118,0,0,0,.72.156,3.571,3.571,0,0,0,1.15-.312q0.78-.339,1.74-0.689c0.64-.234,1.32-0.46,2.03-0.676s1.43-.421,2.17-0.611,1.45-.356,2.14-0.494c-0.01.485-.02,0.966-0.02,1.443v1.469c-0.77.381-1.39,0.71-1.87,0.988s-0.98.572-1.46,0.884c-0.33-.1-0.43-0.035-0.29.208-0.08.052-.17,0.108-0.26,0.169s-0.18.125-.28,0.2a0.929,0.929,0,0,1-.56.234,0.457,0.457,0,0,1-.25-0.468,4.082,4.082,0,0,1,.07-0.962,5.058,5.058,0,0,1,.22-0.884c0.12-.347.11-0.542-0.02-0.585a0.512,0.512,0,0,0-.48.3,4.027,4.027,0,0,0-.52,1.105,5.833,5.833,0,0,0-.22,1.235,6.549,6.549,0,0,0,.04,1.183,2.69,2.69,0,0,0,.26.9c0.17,0.364.37,0.511,0.59,0.442a0.739,0.739,0,0,0,.35-0.754,0.971,0.971,0,0,1,.22-0.546,2.207,2.207,0,0,1,.56-0.546c0.14-.1.27-0.2,0.4-0.3s0.26-.187.38-0.273a13.707,13.707,0,0,1,1.77,1.638,5.6,5.6,0,0,1,.96,1.534,0.745,0.745,0,0,0,.53.559c0.22,0.026.39-.161,0.51-0.559a6.012,6.012,0,0,0,.18-0.793q0.075-.456.12-1.118,0.03-.663.06-1.612t0.03-2.275a0.951,0.951,0,0,1,.11-0.052,0.8,0.8,0,0,0,.12-0.052q0.63-.364.51-0.481a0.919,0.919,0,0,0-.74.169v-1.235q0-.638-0.03-1.365c0.54-.1,1.08-0.187,1.64-0.247a14.912,14.912,0,0,1,1.64-.091c0.53,0,1.04.021,1.52,0.065a6.89,6.89,0,0,1,1.26.221,3.691,3.691,0,0,0,1.59.247c0.17-.078.08-0.308-0.26-0.689A2.039,2.039,0,0,0,1356.02,679.5Zm-7.64,7.761a0.724,0.724,0,0,1-.64-0.234c-0.36-.243-0.69-0.455-0.97-0.637s-0.55-.351-0.79-0.507q0.72-.52,1.35-0.91c0.41-.26.84-0.52,1.27-0.78,0,0.364,0,.728-0.01,1.092s-0.01.736-.01,1.118A1.275,1.275,0,0,1,1348.38,687.264Zm4.91-4.056a8.024,8.024,0,0,0-2.06-.39c-0.37-.035-0.56,0-0.59.117s0.15,0.212.54,0.3a7.983,7.983,0,0,1,1.82.676,6.1,6.1,0,0,1,1.45,1.092,1.412,1.412,0,0,1,.39.572,0.526,0.526,0,0,1-.02.416,0.473,0.473,0,0,1-.33.195,0.87,0.87,0,0,1-.48-0.065q-0.705-.287-1.56-0.6t-1.53-.624a0.714,0.714,0,0,0-.5-0.117,0.636,0.636,0,0,0,.37.429,8.112,8.112,0,0,0,1.33.975,14.286,14.286,0,0,0,1.73.793,1.868,1.868,0,0,0,1.25.078,1.105,1.105,0,0,0,.68-0.988,1.951,1.951,0,0,0-.15-1.053,2.026,2.026,0,0,0-.71-0.9A6.373,6.373,0,0,0,1353.29,683.208Z" transform="translate(-1237.09 -666.781)"/>
</svg>
