<?xml version="1.0" encoding="UTF-8"?>
<svg width="16px" height="12px" viewBox="0 0 16 12" version="1.1" xmlns="http://www.w3.org/2000/svg" xmlns:xlink="http://www.w3.org/1999/xlink">
    <!-- Generator: Sketch 42 (36781) - http://www.bohemiancoding.com/sketch -->
    <title>查看</title>
    <desc>Created with Sketch.</desc>
    <defs></defs>
    <g id="Page-1" stroke="none" stroke-width="1" fill="none" fill-rule="evenodd">
        <g id="角色管理" transform="translate(-2546.000000, -387.000000)" fill="#16B8BE">
            <g id="1-账号管理-角色管理" transform="translate(2205.000000, 120.000000)">
                <g id="右侧" transform="translate(162.000000, 156.000000)">
                    <g id="表格" transform="translate(11.000000, 12.000000)">
                        <g id="表格内容" transform="translate(30.000000, 12.000000)">
                            <path d="M145.991612,94.4586503 C145.110925,94.4586503 144.393182,93.7414969 144.393182,92.8602209 C144.393182,91.9793374 145.110925,91.262184 145.991612,91.262184 C146.872888,91.262184 147.590041,91.9793374 147.590041,92.8602209 C147.590041,93.7414969 146.872888,94.4586503 145.991612,94.4586503 M145.991612,90.1965644 C144.523047,90.1965644 143.327563,91.391362 143.327563,92.8602209 C143.327563,94.3287853 144.523047,95.5242699 145.991612,95.5242699 C147.460078,95.5242699 148.655563,94.3287853 148.655563,92.8602209 C148.655563,91.391362 147.460078,90.1965644 145.991612,90.1965644 M152.90636,92.9014479 C152.905771,92.9037055 152.904691,92.9066503 152.903514,92.908908 C152.901747,92.9158773 152.8989,92.9240245 152.897133,92.9321718 C151.585722,95.7584785 148.816741,97.6549202 145.991612,97.6549202 C143.173452,97.6549202 140.409379,95.763681 139.084912,92.9275583 C139.081673,92.9176442 139.079415,92.9084172 139.075882,92.899092 C139.075391,92.889865 139.073624,92.8823067 139.073035,92.8771043 C139.071857,92.8713129 139.070777,92.8631656 139.069796,92.8561963 L139.069796,92.8489325 C139.073035,92.8370552 139.075391,92.8251779 139.076569,92.8121227 C139.078826,92.8051534 139.080593,92.7984785 139.083244,92.7910184 C140.395145,89.9632393 143.166385,88.0659141 145.991612,88.0659141 C148.817918,88.0659141 151.588667,89.964908 152.896544,92.7883681 C152.897624,92.793865 152.8989,92.7984785 152.900569,92.8023067 C152.901747,92.8069202 152.902925,92.8115337 152.90528,92.8165399 C152.908127,92.8376442 152.910483,92.8585521 152.91333,92.8689571 C152.909894,92.8799509 152.908127,92.8903558 152.90636,92.9014479 M153.982385,92.8619877 C153.982385,92.7659877 153.966188,92.6856933 153.961575,92.6761718 C153.958041,92.6285644 153.941845,92.5419877 153.926728,92.4964417 C153.922704,92.4851534 153.917501,92.4732761 153.912888,92.4619877 C153.904741,92.4358773 153.896004,92.4103558 153.886188,92.3900368 C152.412422,89.1665767 149.239415,87 145.991612,87 C142.744397,87 139.571685,89.1645153 138.104593,92.3706012 C138.086925,92.4054479 138.07436,92.4387239 138.066606,92.4677791 C138.06317,92.4773006 138.059047,92.4863313 138.055906,92.4946748 C138.026851,92.579681 138.02636,92.638773 138.028618,92.6234601 C138.014974,92.6856933 138.002507,92.809865 138.002507,92.809865 C137.999072,92.8471656 137.999072,92.8770061 138.003096,92.9142086 C138.003096,92.9142086 138.015563,93.0225767 138.021649,93.0445644 C138.023415,93.0752883 138.030876,93.1199509 138.039906,93.1604908 L138.039317,93.1604908 C138.04717,93.1953374 138.057869,93.2290061 138.072691,93.2619877 C138.08025,93.2875092 138.089182,93.3112638 138.097035,93.329227 C139.572765,96.5532761 142.744986,98.7204417 145.991612,98.7204417 C149.240004,98.7204417 152.41301,96.5550429 153.869992,93.3651534 C153.892569,93.3234356 153.907096,93.2840736 153.916912,93.249816 C153.921624,93.239411 153.925649,93.2300859 153.928495,93.2208589 C153.954017,93.1465521 153.959219,93.0822577 153.956961,93.0822577 L153.956372,93.0828466 C153.966777,93.0312147 153.982385,92.9541595 153.982385,92.8619877" id="查看"></path>
                        </g>
                    </g>
                </g>
            </g>
        </g>
    </g>
</svg>