<?xml version="1.0" standalone="no"?><!DOCTYPE svg PUBLIC "-//W3C//DTD SVG 1.1//EN" "http://www.w3.org/Graphics/SVG/1.1/DTD/svg11.dtd"><svg class="icon" width="200px" height="200.00px" viewBox="0 0 1024 1024" version="1.1" xmlns="http://www.w3.org/2000/svg"><path fill="#666666" d="M811.968 349.44h-33.344V274.816c0-155.264-110.656-246.528-267.84-246.528-157.76 0-265.344 93.888-265.344 246.528V349.44h-33.344c-73.472 0-133.312 60.736-133.312 135.296v375.616c0 74.688 59.84 135.296 133.312 135.296h599.872c73.472 0 133.248-60.608 133.248-135.296V484.736c0-74.56-59.776-135.296-133.248-135.296zM312 274.816c0-115.264 77.696-178.88 198.72-178.88 119.808 0 201.216 61.568 201.216 178.88V349.44H312V274.816z m566.592 585.536a67.2 67.2 0 0 1-66.624 67.712H212.096a67.2 67.2 0 0 1-66.688-67.712V484.736a67.2 67.2 0 0 1 66.688-67.648h599.872a67.2 67.2 0 0 1 66.624 67.648v375.616zM512 528.192A67.2 67.2 0 0 0 445.312 595.84c0 25.152 13.44 46.912 33.344 58.624v104.512c0 18.688 14.848 33.728 33.28 33.728s33.344-15.04 33.344-33.728v-104.512c19.968-11.712 33.344-33.472 33.344-58.624A67.072 67.072 0 0 0 512 528.192z"  /></svg>