<?xml version="1.0" encoding="UTF-8"?>
<svg width="14px" height="17px" viewBox="0 0 14 17" version="1.1" xmlns="http://www.w3.org/2000/svg" xmlns:xlink="http://www.w3.org/1999/xlink">
    <!-- Generator: Sketch 42 (36781) - http://www.bohemiancoding.com/sketch -->
    <title>权限管理icon</title>
    <desc>Created with Sketch.</desc>
    <defs></defs>
    <g id="Page-1" stroke="none" stroke-width="1" fill="none" fill-rule="evenodd">
        <g id="用户管理" transform="translate(-147.000000, -310.000000)" fill="#CDD7E4">
            <g id="1-账号管理-用户管理" transform="translate(133.000000, 170.000000)">
                <g id="一级导航">
                    <g id="权限管理" transform="translate(0.000000, 130.000000)">
                        <g id="报表" transform="translate(14.000000, 8.000000)">
                            <g id="权限管理icon" transform="translate(0.000000, 2.000000)">
                                <path d="M1.01671744,4.28555465 L1.01671744,7.39681047 C1.01671744,8.79070581 1.01671744,12.4642407 6.96468256,15.2013221 C12.9125663,12.4652988 12.9125663,8.79070581 12.9125663,7.39681047 L12.9125663,4.28555465 C11.3235663,4.05577558 10.0821244,2.79601977 9.87554302,1.20384535 C9.25229884,1.13368256 8.03421744,1.01671744 6.96468256,1.01671744 C5.89506628,1.01671744 4.67698488,1.13368256 4.05471744,1.20278721 C3.84854302,2.79569419 2.60645,4.05610116 1.01671744,4.28555465 M6.96468256,16.267764 C6.89321744,16.2679267 6.82256628,16.2530314 6.75720581,16.2240547 C8.13953488e-06,13.2094965 8.13953488e-06,8.83441512 8.13953488e-06,7.39681047 L8.13953488e-06,3.81484535 C8.13953488e-06,3.5340314 0.227589535,3.30645 0.508322093,3.30645 C1.92028721,3.30417093 3.06421744,2.1602407 3.06649651,0.748275581 C3.06641512,0.492694186 3.25622907,0.276752326 3.50977558,0.244031395 C3.58604302,0.233856977 5.39171744,8.13953488e-06 6.96468256,8.13953488e-06 C8.53756628,8.13953488e-06 10.3432407,0.233856977 10.4195081,0.244031395 C10.6730547,0.276752326 10.8628686,0.492694186 10.8627872,0.748275581 C10.8650663,2.1602407 12.0090779,3.30417093 13.4209616,3.30645 C13.7016942,3.30645 13.9292756,3.5340314 13.9292756,3.81484535 L13.9292756,7.39681047 C13.9292756,8.83441512 13.9292756,13.2094965 7.17207791,16.2240547 C7.10679884,16.2530314 7.03606628,16.2679267 6.96468256,16.267764" id="Fill-1"></path>
                                <path d="M6.12686395,11.2196977 C5.99207326,11.2195349 5.86273605,11.1662209 5.76693372,11.071314 L2.92110814,8.22540698 C2.72600349,8.02346512 2.73161977,7.70162791 2.93364302,7.50660465 C3.13061977,7.31630233 3.44293372,7.31630233 3.63991047,7.50660465 L6.12588721,9.9925 L10.288364,5.82798837 C10.4903058,5.63288372 10.8122244,5.6385 11.0072477,5.84044186 C11.1974686,6.0375 11.1974686,6.34981395 11.0072477,6.5467907 L6.48581744,11.0702558 C6.39091047,11.1660581 6.26165465,11.2198605 6.12686395,11.2196977" id="Fill-3"></path>
                            </g>
                        </g>
                    </g>
                </g>
            </g>
        </g>
    </g>
</svg>