<?xml version="1.0" encoding="UTF-8"?>
<svg width="15px" height="15px" viewBox="0 0 15 15" version="1.1" xmlns="http://www.w3.org/2000/svg" xmlns:xlink="http://www.w3.org/1999/xlink">
    <!-- Generator: Sketch 42 (36781) - http://www.bohemiancoding.com/sketch -->
    <title>角色管理icon</title>
    <desc>Created with Sketch.</desc>
    <defs></defs>
    <g id="Page-1" stroke="none" stroke-width="1" fill="none" fill-rule="evenodd">
        <g id="用户管理" transform="translate(-147.000000, -273.000000)" fill="#CDD7E4">
            <g id="1-账号管理-用户管理" transform="translate(133.000000, 170.000000)">
                <g id="一级导航">
                    <g id="角色管理" transform="translate(0.000000, 92.000000)">
                        <g id="报表" transform="translate(14.000000, 8.000000)">
                            <g id="角色管理icon" transform="translate(0.000000, 3.000000)">
                                <path d="M3.65580905,3.80320101 C3.65580905,2.24561307 4.93088442,0.978452261 6.49819598,0.978452261 C8.06543216,0.978452261 9.34073367,2.24561307 9.34073367,3.80320101 C9.34073367,5.36086432 8.06543216,6.62787437 6.49819598,6.62787437 C4.93088442,6.62787437 3.65580905,5.36086432 3.65580905,3.80320101 L3.65580905,3.80320101 Z M0.987015075,13.9185528 L0.987015075,13.0823216 C0.987015075,10.2391055 3.17957789,7.8959397 5.97296985,7.6318191 L5.97176382,7.63129146 C5.97176382,7.63129146 5.97462814,7.63129146 5.97907538,7.63144221 C6.15033166,7.61538693 6.32354774,7.60634171 6.49894975,7.60634171 C6.52533166,7.60634171 6.55141206,7.60777387 6.57764322,7.60807538 C7.19543216,7.56013568 8.13025628,7.4149598 8.61877387,6.97890452 L8.85786935,6.79257286 C9.79186432,6.06322613 10.3275678,4.97357789 10.3275678,3.80320101 C10.3275678,1.70606533 8.60980402,-1.50753769e-05 6.49819598,-1.50753769e-05 C4.38658794,-1.50753769e-05 2.66882412,1.70606533 2.66882412,3.80320101 C2.66882412,4.97350251 3.20452764,6.06322613 4.13852261,6.79257286 L4.37754271,6.97890452 L4.09593467,7.09076382 C1.60774372,8.07857789 -4.52261307e-05,10.4303367 -4.52261307e-05,13.0823216 L-4.52261307e-05,14.4076734 C-4.52261307e-05,14.6775226 0.221261307,14.8970201 0.493447236,14.8970201 L7.70384925,14.8970201 C7.46905025,14.5964171 7.269,14.2684523 7.10724121,13.9185528 L0.987015075,13.9185528 Z M14.1782714,11.7564422 C13.3908844,11.8594824 12.7909598,12.5318442 12.7909598,13.3394322 C12.7909598,13.5259146 12.8359598,13.7029749 12.8755327,13.8228241 L12.175809,14.2096583 C12.1128693,14.148 12.0124673,14.0555879 11.8880201,13.9633266 C11.5787487,13.7338794 11.2791256,13.6171206 10.9978191,13.6171206 C10.7187739,13.6171206 10.4215628,13.7316181 10.1141759,13.9569196 C9.99153769,14.046995 9.89219095,14.136392 9.82827136,14.1984271 L9.15937688,13.8241809 C9.1991005,13.7041055 9.24440201,13.5259146 9.24440201,13.3394322 C9.24440201,12.5318442 8.64462814,11.8594824 7.85716583,11.7564422 C7.83696482,11.6261156 7.80869849,11.4136281 7.80869849,11.2456884 C7.80869849,11.076995 7.83681407,10.8651106 7.85716583,10.7351608 C8.64447739,10.6320452 9.24440201,9.95953266 9.24440201,9.15209548 C9.24440201,8.9661407 9.19940201,8.78915578 9.15990452,8.66923116 L9.88216583,8.27282412 C9.94480402,8.33184422 10.0453568,8.42056281 10.1689749,8.50852764 C10.4721407,8.72463317 10.764603,8.83445729 11.0376935,8.83445729 C11.3080704,8.83445729 11.5980452,8.7268191 11.8992513,8.51463317 C12.0218141,8.42862814 12.1210101,8.34254774 12.1841759,8.28382915 L12.8758342,8.6681005 C12.8361859,8.7881005 12.7910352,8.96561307 12.7910352,9.15209548 C12.7910352,9.95968342 13.3907337,10.6320452 14.1781206,10.7351608 C14.1987739,10.8678241 14.2268141,11.0792563 14.2268141,11.2458392 C14.2268141,11.4134774 14.1988492,11.6243065 14.1782714,11.7564422 L14.1782714,11.7564422 Z M14.9049799,10.4693065 C14.8495025,10.1768442 14.6618894,9.98787437 14.4210603,9.98787437 L14.387593,9.98787437 C13.9266633,9.98787437 13.5515879,9.61294975 13.5515879,9.15209548 C13.5515879,9.03111558 13.6045025,8.88239698 13.6245528,8.83581407 C13.7386734,8.57877889 13.6508593,8.26332663 13.3972915,8.08777387 L12.4197286,7.54656784 C12.3430704,7.51347739 12.2603819,7.49659296 12.1736231,7.49659296 C11.9965628,7.49659296 11.8216131,7.56872864 11.7056834,7.68880402 C11.5838744,7.81438191 11.2604322,8.07345226 11.0376935,8.07345226 C10.8128442,8.07345226 10.4873668,7.80933166 10.3653317,7.68194472 C10.2488744,7.55885427 10.0722663,7.48528643 9.89324623,7.48528643 C9.80754271,7.48528643 9.72598492,7.50164322 9.65271859,7.53330151 L9.63440201,7.5408392 L8.63965327,8.08717085 L8.61598492,8.10254774 C8.38472864,8.26332663 8.29646231,8.57862814 8.40982915,8.83340201 C8.41729146,8.85156784 8.48384925,9.01340201 8.48384925,9.15209548 C8.48384925,9.61294975 8.10877387,9.98787437 7.64761809,9.98787437 L7.60864824,9.98787437 C7.37362312,9.98787437 7.1858593,10.1768442 7.13045729,10.4695327 C7.12201508,10.514608 7.04799497,10.9188543 7.04799497,11.2456884 C7.04799497,11.5726734 7.12201508,11.9769196 7.13045729,12.0223719 C7.1858593,12.3146834 7.37347236,12.5036533 7.61452764,12.5036533 L7.64761809,12.5036533 C8.10869849,12.5036533 8.48384925,12.8787286 8.48384925,13.3394322 C8.48384925,13.4604874 8.4308593,13.6091307 8.41080905,13.6557889 C8.29691457,13.9125226 8.38435176,14.2275226 8.63709045,14.4037538 L9.59618593,14.9381759 C9.67269347,14.9714171 9.75538191,14.988603 9.84236683,14.988603 C10.022593,14.988603 10.1995025,14.9131508 10.3150553,14.7871206 C10.4331709,14.6589045 10.768598,14.3780503 10.9977437,14.3780503 C11.2292261,14.3780503 11.5608844,14.6595075 11.6848794,14.7954874 C11.8011859,14.9237035 11.9792261,15.0001357 12.1609598,15.0001357 C12.2464372,15.0001357 12.3278442,14.9837789 12.4268141,14.9399849 L13.3965377,14.4041307 L13.4197538,14.3887538 C13.6507085,14.228201 13.7388241,13.913201 13.6255327,13.6582764 C13.6180704,13.6398844 13.5515879,13.478201 13.5515879,13.3394322 C13.5515879,12.8787286 13.9266633,12.5036533 14.387593,12.5036533 L14.4261106,12.5036533 C14.6616633,12.5036533 14.8494271,12.314608 14.9046784,12.0230503 C14.9054322,12.0190553 14.9874422,11.5895578 14.9874422,11.2456884 C14.9874422,10.9188543 14.9134221,10.514608 14.9049799,10.4693065 L14.9049799,10.4693065 Z M11.0009095,11.9565678 C10.6061608,11.9565678 10.285206,11.6354623 10.285206,11.2407136 C10.285206,10.846191 10.6061608,10.5250101 11.0009095,10.5250101 C11.3956583,10.5250101 11.7168392,10.846191 11.7168392,11.2407136 C11.7168392,11.6354623 11.3956583,11.9565678 11.0009095,11.9565678 L11.0009095,11.9565678 Z M11.0009095,9.76415578 C10.1868392,9.76415578 9.52450251,10.4267186 9.52450251,11.2407136 C9.52450251,12.0549347 10.1868392,12.7174975 11.0009095,12.7174975 C11.815206,12.7174975 12.4775427,12.0549347 12.4775427,11.2407136 C12.4775427,10.4267186 11.815206,9.76415578 11.0009095,9.76415578 L11.0009095,9.76415578 Z" id="Fill-1"></path>
                            </g>
                        </g>
                    </g>
                </g>
            </g>
        </g>
    </g>
</svg>