<?xml version="1.0" encoding="UTF-8"?>
<svg width="14px" height="13px" viewBox="0 0 14 13" version="1.1" xmlns="http://www.w3.org/2000/svg" xmlns:xlink="http://www.w3.org/1999/xlink">
    <!-- Generator: Sketch 42 (36781) - http://www.bohemiancoding.com/sketch -->
    <title>平台icon</title>
    <desc>Created with Sketch.</desc>
    <defs></defs>
    <g id="Page-1" stroke="none" stroke-width="1" fill="none" fill-rule="evenodd">
        <g id="用户管理" transform="translate(-147.000000, -350.000000)" fill="#CDD7E4">
            <g id="1-账号管理-用户管理" transform="translate(133.000000, 170.000000)">
                <g id="一级导航">
                    <g id="权限管理-copy" transform="translate(0.000000, 168.000000)">
                        <g id="报表" transform="translate(14.000000, 8.000000)">
                            <g id="平台icon" transform="translate(0.000000, 4.000000)">
                                <g id="Group-3" transform="translate(0.000000, 0.056301)">
                                    <path d="M12.9811011,8.91507957 L1.01772473,8.91507957 L1.01772473,1.00658495 L12.9832086,1.00658495 L12.9832086,8.91402581 L12.9811011,8.91402581 L12.9811011,8.91507957 Z M12.9811011,0.0189827957 L1.0016172,0.0189827957 C0.451853763,0.015972043 0.00355268817,0.458929032 1.50537634e-05,1.00869247 L1.50537634e-05,8.88391828 C1.50537634e-05,9.43044516 0.448617204,9.87362796 1.0016172,9.87362796 L6.45506882,9.87362796 L6.45506882,11.8822516 L4.72832688,11.8822516 C4.61421935,11.8816495 4.52126237,11.973628 4.52066022,12.0876602 L4.52066022,12.0920258 L4.52066022,12.6612086 C4.52066022,12.7773484 4.60676774,12.8709828 4.7348,12.8709828 L9.28133763,12.8709828 C9.39966022,12.8709828 9.49645591,12.7795312 9.49645591,12.6612086 L9.49645591,12.090972 C9.49201505,11.9767892 9.39981075,11.8855634 9.28555269,11.8822516 L7.53088602,11.8822516 L7.53088602,9.87264946 L12.9843376,9.87264946 C13.5341763,9.87558495 13.9824022,9.43262796 13.9859398,8.88278925 L13.9859398,1.00658495 C13.9794667,0.457122581 13.5306387,0.015972043 12.9811011,0.0189827957 L12.9811011,0.0189827957 Z" id="Fill-1"></path>
                                </g>
                                <path d="M4.15814301,6.66046989 C4.15814301,6.78105054 4.26246559,6.87882473 4.37326129,6.87882473 L9.99027204,6.87882473 C10.1085946,6.87882473 10.2053903,6.79286774 10.2053903,6.66046989 L10.2053903,6.15270645 C10.2032075,6.03423333 10.1086699,5.93826559 9.99027204,5.93435161 L4.37326129,5.93435161 C4.25493871,5.93435161 4.15814301,6.02038387 4.15814301,6.15270645 L4.15814301,6.66046989 Z M4.15814301,3.82562043 C4.15814301,3.94612581 4.26246559,4.0451043 4.37326129,4.0451043 L9.99027204,4.0451043 C10.1085946,4.0451043 10.2053903,3.95688925 10.2053903,3.82562043 L10.2053903,3.31891075 C10.2038097,3.20006129 10.1090462,3.1034914 9.99027204,3.09942688 L4.37326129,3.09942688 C4.25493871,3.09942688 4.15814301,3.18553441 4.15814301,3.31891075 L4.15814301,3.82456667 L4.15814301,3.82562043 Z" id="Fill-4"></path>
                            </g>
                        </g>
                    </g>
                </g>
            </g>
        </g>
    </g>
</svg>