<?xml version="1.0" encoding="UTF-8"?>
<svg width="14px" height="15px" viewBox="0 0 14 15" version="1.1" xmlns="http://www.w3.org/2000/svg" xmlns:xlink="http://www.w3.org/1999/xlink">
    <!-- Generator: Sketch 42 (36781) - http://www.bohemiancoding.com/sketch -->
    <title>用户管理icon</title>
    <desc>Created with Sketch.</desc>
    <defs></defs>
    <g id="Page-1" stroke="none" stroke-width="1" fill="none" fill-rule="evenodd">
        <g id="用户管理" transform="translate(-147.000000, -236.000000)" fill="#CDD7E4">
            <g id="1-账号管理-用户管理" transform="translate(133.000000, 170.000000)">
                <g id="一级导航">
                    <g id="设置" transform="translate(0.000000, 54.000000)">
                        <g id="Page-1">
                            <g id="用户管理icon" transform="translate(14.000000, 12.000000)">
                                <path d="M10.9694667,1.06372 C10.7361333,1.06372 10.5476,1.25318667 10.5476,1.48558667 C10.5476,1.71892 10.7361333,1.90745333 10.9694667,1.90745333 C11.4165333,1.90745333 11.8449333,2.08572 12.1622667,2.40212 C12.4786667,2.71852 12.6569333,3.14785333 12.6569333,3.59492 L12.6569333,12.0322533 C12.6569333,12.4802533 12.4786667,12.9095867 12.1622667,13.22692 C11.8449333,13.54332 11.4165333,13.7206533 10.9694667,13.7206533 L2.5312,13.7206533 C2.0832,13.7206533 1.6548,13.54332 1.3384,13.22692 C1.02106667,12.9095867 0.843733333,12.4802533 0.843733333,12.0322533 L0.843733333,3.59492 C0.843733333,3.14785333 1.02106667,2.71852 1.3384,2.40212 C1.6548,2.08572 2.0832,1.90745333 2.5312,1.90745333 C2.76453333,1.90745333 2.95306667,1.71892 2.95306667,1.48558667 C2.95306667,1.25318667 2.76453333,1.06372 2.5312,1.06372 C1.13306667,1.06372 0,2.19678667 0,3.59492 L0,12.0322533 C0,13.4303867 1.13306667,14.5643867 2.5312,14.5643867 L10.9694667,14.5643867 C12.3666667,14.5643867 13.5006667,13.4303867 13.5006667,12.0322533 L13.5006667,3.59492 C13.5006667,2.19678667 12.3666667,1.06372 10.9694667,1.06372" id="Fill-1"></path>
                                <path d="M6.75033333,4.01725333 C7.6818,4.01725333 8.4378,4.77325333 8.4378,5.70472 C8.4378,6.63712 7.6818,7.39218667 6.75033333,7.39218667 C5.81793333,7.39218667 5.06193333,6.63712 5.06193333,5.70472 C5.06193333,5.25765333 5.2402,4.82832 5.55753333,4.51098667 C5.87393333,4.19458667 6.30326667,4.01725333 6.75033333,4.01725333 M3.16446667,10.9780533 C3.16446667,11.2113867 3.353,11.39992 3.58633333,11.39992 C3.81873333,11.39992 4.0082,11.2113867 4.0082,10.9780533 C4.0082,9.46418667 5.23553333,8.23685333 6.75033333,8.23685333 C8.2642,8.23685333 9.49246667,9.46418667 9.49246667,10.9780533 C9.49246667,11.2113867 9.68193333,11.39992 9.91433333,11.39992 C10.1476667,11.39992 10.3362,11.2113867 10.3362,10.9780533 C10.3343333,9.57432 9.50833333,8.30312 8.22686667,7.73005333 C9.10326667,7.07952 9.46446667,5.93992 9.12193333,4.90298667 C8.7794,3.86512 7.8106,3.16512 6.7186,3.16512 C5.6266,3.16512 4.6578,3.86512 4.31526667,4.90298667 C3.9718,5.93992 4.333,7.07952 5.21033333,7.73005333 C3.95406667,8.32085333 3.15513333,9.58925333 3.16446667,10.9780533 M4.641,1.90792 C4.8734,1.90792 5.06193333,1.71938667 5.06193333,1.48605333 C5.06193333,1.31805333 5.13006667,1.15752 5.2486,1.03805333 C5.36713333,0.91952 5.52766667,0.853253333 5.69566667,0.853253333 L7.805,0.853253333 C7.973,0.853253333 8.13353333,0.91952 8.25206667,1.03805333 C8.3706,1.15752 8.4378,1.31805333 8.4378,1.48605333 C8.4378,1.71938667 8.62726667,1.90792 8.85966667,1.90792 C9.093,1.90792 9.28153333,1.71938667 9.28153333,1.48605333 C9.28153333,0.67032 8.62073333,0.00952 7.805,0.00952 L5.69566667,0.00952 C4.87993333,0.00952 4.21913333,0.67032 4.21913333,1.48605333 C4.21913333,1.59805333 4.263,1.70445333 4.34233333,1.78378667 C4.42166667,1.86312 4.529,1.90792 4.641,1.90792" id="Fill-4"></path>
                            </g>
                        </g>
                    </g>
                </g>
            </g>
        </g>
    </g>
</svg>