<?xml version="1.0" standalone="no"?><!DOCTYPE svg PUBLIC "-//W3C//DTD SVG 1.1//EN" "http://www.w3.org/Graphics/SVG/1.1/DTD/svg11.dtd"><svg class="icon" width="200px" height="200.00px" viewBox="0 0 1024 1024" version="1.1" xmlns="http://www.w3.org/2000/svg"><path fill="#666666" d="M652.288 566.272a276.992 276.992 0 1 0-282.624 0 398.336 398.336 0 0 0-256 372.736 32.768 32.768 0 0 0 65.024 0 334.336 334.336 0 1 1 669.184 0 32.768 32.768 0 0 0 65.024 0 402.944 402.944 0 0 0-259.072-372.736z m-353.28-237.568A211.968 211.968 0 1 1 512 540.672a211.968 211.968 0 0 1-212.992-211.968z m0 0" /></svg>